<?xml version="1.0" encoding="utf-8"?>
<!-- Generator: Adobe Illustrator 24.3.0, SVG Export Plug-In . SVG Version: 6.00 Build 0)  -->
<svg version="1.1" id="Слой_1" xmlns="http://www.w3.org/2000/svg" xmlns:xlink="http://www.w3.org/1999/xlink" x="0px" y="0px"
	 viewBox="0 0 962 264" style="enable-background:new 0 0 962 264;" xml:space="preserve">
<style type="text/css">
	.st0{fill:#DD0C15;}
	.st1{fill:#FFFFFF;}
</style>
<g>
	<polygon points="962,255.96 706.43,255.96 706.43,0.5 962,0.5 962,255.96 	"/>
	<polygon class="st0" points="394.07,163.2 394.07,64.43 362.12,64.43 362.12,191.96 457.95,191.96 457.95,163.2 394.07,163.2 	"/>
	<polygon class="st0" points="642.51,191.96 642.51,92.86 674.49,92.86 674.49,64.43 578.66,64.43 578.66,92.86 610.6,92.86 
		610.6,191.96 642.51,191.96 	"/>
	<polygon class="st0" points="342.68,92.86 342.68,64.43 247.44,64.43 247.44,191.96 342.68,191.96 342.68,163.2 279.39,163.2 
		279.39,140.8 310.73,140.8 310.73,112.04 279.39,112.04 279.39,92.86 342.68,92.86 	"/>
	<polygon class="st0" points="197.12,128 233.82,64.43 200.61,64.43 180.53,99.24 160.48,64.43 127.23,64.43 163.94,128 
		127.03,191.97 160.24,191.97 180.53,156.79 200.85,191.97 234.02,191.97 197.12,128 	"/>
	<path class="st0" d="M578.62,127.89c0,19.04-5.19,34.8-15.55,47.33c-11.03,13.3-25.85,19.96-44.47,19.96
		c-18.85,0-33.85-6.53-44.99-19.63c-10.57-12.3-15.9-28.08-15.9-47.31c0-19.13,5.4-34.94,16.23-47.48
		c11.48-13.22,26.58-19.8,45.33-19.8c18.39,0,33.03,6.65,43.97,19.97C573.5,93.44,578.62,109.11,578.62,127.89L578.62,127.89z
		 M549.12,128.24c0-9.83-2.54-18.28-7.53-25.31c-5.53-7.93-13.05-11.92-22.51-11.92c-9.8,0-17.43,3.98-22.85,11.92
		c-4.8,6.93-7.19,15.53-7.19,25.81c0,9.73,2.46,18.05,7.35,25c5.54,7.93,12.97,11.9,22.19,11.9c9.56,0,17.18-3.96,22.88-11.9
		C546.55,146.68,549.12,138.19,549.12,128.24L549.12,128.24z"/>
	<path class="st0" d="M73.64,64.43L0,192.04v0.02h33.21v-0.02L46.1,169.7l12.92,22.37l55.02-0.02V64.43H73.64L73.64,64.43z
		 M49.79,163.28l32.28-55.96v55.96H49.79L49.79,163.28z"/>
	<path class="st1" d="M894.32,127.61l36.68-63.56h-33.21l-20.05,34.8l-20.08-34.8l-61.85-0.02l-73.57,127.52h33.21l12.82-22.23
		l12.86,22.23h76.3l20.32-35.16l20.29,35.16h33.21L894.32,127.61L894.32,127.61z M804.25,162.88h-32.27l12.85-22.34l19.42-33.6
		V162.88L804.25,162.88z"/>
	<polygon class="st0" points="834.2,174.28 834.2,80.96 861.11,127.6 834.2,174.28 	"/>
	<path class="st0" d="M15.15,64.36c2.47,0,4.87,0.62,7.23,1.88c2.33,1.26,4.16,3.07,5.5,5.43c1.29,2.37,1.96,4.82,1.96,7.37
		c0,2.53-0.67,4.96-1.96,7.3c-1.27,2.33-3.1,4.15-5.43,5.43c-2.31,1.28-4.77,1.95-7.3,1.95c-2.56,0-4.99-0.67-7.33-1.95
		c-2.3-1.28-4.16-3.1-5.45-5.43c-1.3-2.34-1.93-4.77-1.93-7.3c0-2.55,0.67-5,1.96-7.37c1.34-2.36,3.17-4.16,5.54-5.43
		C10.25,64.98,12.68,64.36,15.15,64.36L15.15,64.36z M15.15,66.79c-2.06,0-4.07,0.52-6.03,1.58c-1.96,1.05-3.49,2.57-4.6,4.53
		c-1.1,1.95-1.62,4-1.62,6.13c0,2.1,0.52,4.13,1.59,6.08c1.11,1.92,2.63,3.43,4.57,4.52c1.94,1.08,3.97,1.63,6.1,1.63
		c2.1,0,4.13-0.55,6.1-1.63c1.93-1.08,3.42-2.6,4.53-4.52c1.07-1.95,1.6-3.98,1.6-6.08c0-2.13-0.53-4.18-1.64-6.13
		c-1.1-1.96-2.63-3.48-4.56-4.53C19.22,67.31,17.18,66.79,15.15,66.79L15.15,66.79z M8.65,87.17V71.36h5.47
		c1.86,0,3.22,0.13,4.06,0.43c0.83,0.28,1.46,0.8,1.96,1.53c0.5,0.73,0.78,1.5,0.78,2.32c0,1.17-0.44,2.17-1.27,3.03
		c-0.8,0.85-1.9,1.33-3.26,1.43c0.53,0.23,1,0.52,1.33,0.83c0.64,0.63,1.44,1.66,2.34,3.13l1.93,3.1h-3.07l-1.43-2.5
		c-1.1-1.95-2-3.2-2.7-3.68c-0.46-0.35-1.13-0.53-2.06-0.53h-1.49v6.71H8.65L8.65,87.17z M11.23,78.29h3.15
		c1.51,0,2.54-0.21,3.11-0.66c0.53-0.43,0.8-1.02,0.8-1.75c0-0.47-0.14-0.9-0.37-1.26c-0.3-0.37-0.66-0.65-1.13-0.82
		c-0.47-0.18-1.34-0.28-2.6-0.28h-2.96V78.29L11.23,78.29z"/>
	<g>
		<path d="M0.43,221.82c1.42-0.3,2.97-0.51,4.64-0.64c1.67-0.12,3.32-0.18,4.95-0.18c1.72,0,3.47,0.15,5.25,0.46
			s3.39,0.86,4.85,1.68c1.45,0.81,2.65,1.94,3.58,3.38c0.93,1.44,1.39,3.29,1.39,5.56c0,2.13-0.42,3.95-1.27,5.46
			c-0.85,1.51-1.97,2.73-3.37,3.68c-1.4,0.95-3.01,1.64-4.82,2.08c-1.81,0.44-3.68,0.66-5.6,0.66c-0.2,0-0.52-0.01-0.94-0.02
			c-0.42-0.02-0.86-0.04-1.32-0.05c-0.46-0.02-0.9-0.04-1.32-0.08c-0.42-0.03-0.73-0.07-0.94-0.1V257H0.43V221.82z M10.17,225.48
			c-0.91,0-1.8,0.02-2.66,0.05c-0.86,0.04-1.53,0.12-2.01,0.25v13.46c0.17,0.07,0.45,0.11,0.84,0.12c0.39,0.02,0.79,0.04,1.22,0.07
			c0.42,0.03,0.83,0.05,1.22,0.05s0.69,0,0.89,0c1.22,0,2.42-0.09,3.6-0.28s2.26-0.54,3.22-1.08c0.96-0.53,1.74-1.29,2.33-2.25
			c0.59-0.97,0.89-2.22,0.89-3.75c0-1.34-0.29-2.43-0.86-3.3c-0.58-0.87-1.32-1.55-2.23-2.05c-0.91-0.5-1.94-0.85-3.07-1.03
			C12.41,225.57,11.29,225.48,10.17,225.48z"/>
		<path d="M31.58,221.47h21.46v4.47H36.65v10.71h14.97v4.47H36.65v11.42h16.64V257H31.58V221.47z"/>
		<path d="M61.26,257v-35.53h5.07v31.07h12.23v-31.07h5.07v31.07H95.8v-31.07h5.07V257H61.26z"/>
		<path d="M109.91,221.47h21.46v4.47h-16.39v10.71h14.97v4.47h-14.97v11.42h16.64V257h-21.71V221.47z"/>
		<path d="M162.67,241.11h-18.01V257h-5.07v-35.53h5.07v15.18h18.01v-15.18h5.07V257h-5.07V241.11z"/>
		<path d="M200.41,233.5l0.31-3.91h-0.2l-2.44,4.01L179.87,257h-3.1v-35.53h5.07v23.66l-0.46,3.86h0.25l2.54-4.01l18.16-23.5h3.15
			V257h-5.07V233.5z"/>
		<path d="M237.14,257h-5.07v-15.13l-5.43,1.12L217.15,257h-5.88l8.58-12.39l3.35-2.23c-1.32-0.24-2.54-0.62-3.65-1.14
			c-1.12-0.53-2.09-1.21-2.92-2.06c-0.83-0.85-1.47-1.84-1.93-2.99c-0.46-1.15-0.69-2.49-0.69-4.01c0-2.06,0.39-3.8,1.17-5.22
			s1.83-2.57,3.15-3.45c1.32-0.88,2.87-1.51,4.67-1.9c1.79-0.39,3.7-0.58,5.73-0.58c1.25,0,2.63,0.06,4.13,0.18
			c1.5,0.12,2.93,0.33,4.29,0.64V257z M228.42,225.48c-1.19,0-2.32,0.1-3.4,0.3c-1.08,0.2-2.04,0.55-2.87,1.05s-1.5,1.18-2,2.03
			s-0.76,1.95-0.76,3.29c0,1.24,0.24,2.28,0.71,3.14c0.47,0.85,1.12,1.54,1.95,2.06s1.79,0.9,2.89,1.13
			c1.1,0.23,2.27,0.35,3.53,0.35h3.6v-13.05c-0.47-0.13-0.98-0.22-1.52-0.25C230,225.5,229.29,225.48,228.42,225.48z"/>
		<path d="M290.96,263.5h-3.5l-0.86-6.5h-26.99l-0.81,6.5h-3.5v-10.97h3.96c0.3-0.37,0.77-1.22,1.4-2.56
			c0.62-1.34,1.25-3.25,1.88-5.73c0.62-2.49,1.16-5.61,1.6-9.37c0.44-3.76,0.64-8.22,0.61-13.4h21.15v31.07h5.07V263.5z
			 M280.82,252.53v-26.6h-11.41c-0.14,3.59-0.35,6.79-0.63,9.62c-0.29,2.82-0.64,5.32-1.06,7.49c-0.42,2.17-0.9,4.03-1.42,5.58
			c-0.52,1.56-1.07,2.86-1.65,3.91H280.82z"/>
		<path d="M317.45,225.94h-11.16c-0.17,3.35-0.36,6.39-0.58,9.14c-0.22,2.74-0.5,5.22-0.84,7.44c-0.34,2.22-0.74,4.17-1.19,5.86
			c-0.46,1.69-1.02,3.16-1.7,4.42c-0.88,1.62-1.89,2.77-3.04,3.45c-1.15,0.67-2.35,1.01-3.6,1.01c-0.71,0-1.29-0.04-1.75-0.12
			c-0.46-0.09-0.92-0.21-1.39-0.38l0.66-4.27c0.4,0.1,0.81,0.15,1.22,0.15c0.4,0,0.82-0.07,1.24-0.23c0.42-0.15,0.84-0.41,1.24-0.76
			c0.4-0.35,0.79-0.85,1.17-1.5c0.51-0.88,0.98-2.06,1.42-3.55c0.44-1.49,0.83-3.39,1.17-5.68c0.34-2.3,0.62-5.05,0.84-8.25
			c0.22-3.2,0.38-6.93,0.48-11.19h20.9V257h-5.07V225.94z"/>
		<path d="M354.18,257h-5.07v-15.13l-5.43,1.12L334.19,257h-5.88l8.58-12.39l3.35-2.23c-1.32-0.24-2.54-0.62-3.65-1.14
			c-1.12-0.53-2.09-1.21-2.92-2.06c-0.83-0.85-1.47-1.84-1.93-2.99c-0.46-1.15-0.69-2.49-0.69-4.01c0-2.06,0.39-3.8,1.17-5.22
			s1.83-2.57,3.15-3.45c1.32-0.88,2.87-1.51,4.67-1.9c1.79-0.39,3.7-0.58,5.73-0.58c1.25,0,2.63,0.06,4.13,0.18
			c1.5,0.12,2.93,0.33,4.29,0.64V257z M345.45,225.48c-1.19,0-2.32,0.1-3.4,0.3c-1.08,0.2-2.04,0.55-2.87,1.05
			c-0.83,0.5-1.5,1.18-2,2.03c-0.51,0.85-0.76,1.95-0.76,3.29c0,1.24,0.24,2.28,0.71,3.14c0.47,0.85,1.12,1.54,1.95,2.06
			c0.83,0.52,1.79,0.9,2.89,1.13c1.1,0.23,2.27,0.35,3.53,0.35h3.6v-13.05c-0.47-0.13-0.98-0.22-1.52-0.25
			C347.04,225.5,346.33,225.48,345.45,225.48z"/>
		<path d="M398.52,225.94h-11.16c-0.17,3.35-0.36,6.39-0.58,9.14c-0.22,2.74-0.5,5.22-0.84,7.44c-0.34,2.22-0.74,4.17-1.19,5.86
			c-0.46,1.69-1.02,3.16-1.7,4.42c-0.88,1.62-1.89,2.77-3.04,3.45c-1.15,0.67-2.35,1.01-3.6,1.01c-0.71,0-1.29-0.04-1.75-0.12
			c-0.46-0.09-0.92-0.21-1.39-0.38l0.66-4.27c0.4,0.1,0.81,0.15,1.22,0.15c0.4,0,0.82-0.07,1.24-0.23c0.42-0.15,0.84-0.41,1.24-0.76
			c0.4-0.35,0.79-0.85,1.17-1.5c0.51-0.88,0.98-2.06,1.42-3.55c0.44-1.49,0.83-3.39,1.17-5.68c0.34-2.3,0.62-5.05,0.84-8.25
			c0.22-3.2,0.38-6.93,0.48-11.19h20.9V257h-5.07V225.94z"/>
		<path d="M411.04,239.24c0-2.91,0.36-5.51,1.09-7.8c0.73-2.28,1.78-4.21,3.14-5.79c1.37-1.57,3.04-2.77,5.02-3.6
			c1.98-0.83,4.22-1.24,6.72-1.24c2.67,0,5.01,0.45,7.03,1.34c2.01,0.9,3.69,2.15,5.02,3.76c1.34,1.61,2.33,3.55,2.99,5.81
			c0.66,2.27,0.99,4.77,0.99,7.52c0,2.91-0.36,5.5-1.09,7.79c-0.73,2.28-1.79,4.21-3.17,5.79c-1.39,1.57-3.07,2.77-5.05,3.6
			c-1.98,0.83-4.22,1.24-6.72,1.24c-2.71,0-5.06-0.45-7.05-1.34c-2-0.9-3.65-2.15-4.97-3.76c-1.32-1.61-2.31-3.55-2.97-5.81
			C411.38,244.48,411.04,241.97,411.04,239.24z M416.42,239.24c0,1.91,0.21,3.71,0.63,5.39c0.42,1.68,1.06,3.16,1.93,4.43
			s1.96,2.28,3.3,3.02c1.34,0.74,2.92,1.11,4.74,1.11c3.28,0,5.88-1.13,7.79-3.38c1.91-2.25,2.87-5.78,2.87-10.58
			c0-1.88-0.21-3.66-0.63-5.35c-0.42-1.68-1.06-3.16-1.93-4.43c-0.86-1.28-1.96-2.29-3.3-3.05c-1.34-0.76-2.93-1.13-4.79-1.13
			c-3.25,0-5.82,1.15-7.74,3.43S416.42,234.5,416.42,239.24z"/>
		<path d="M471.57,225.94h-15.98V257h-5.07v-35.53h21.05V225.94z"/>
		<path d="M498.81,233.5l0.31-3.91h-0.2l-2.44,4.01L478.26,257h-3.1v-35.53h5.07v23.66l-0.46,3.86h0.25l2.54-4.01l18.16-23.5h3.15
			V257h-5.07V233.5z"/>
		<path d="M538.02,255.48c-1.11,0.81-2.53,1.38-4.26,1.7c-1.72,0.32-3.55,0.48-5.48,0.48c-2.27,0-4.42-0.36-6.47-1.09
			c-2.04-0.72-3.85-1.84-5.4-3.35c-1.56-1.5-2.79-3.42-3.7-5.73c-0.91-2.32-1.37-5.07-1.37-8.25c0-3.32,0.51-6.14,1.52-8.48
			c1.01-2.34,2.33-4.24,3.96-5.71c1.62-1.47,3.45-2.55,5.48-3.23c2.03-0.67,4.04-1.01,6.04-1.01c2.23,0,4.06,0.12,5.48,0.35
			c1.42,0.24,2.62,0.54,3.6,0.91l-1.12,4.37c-1.65-0.78-4.17-1.17-7.56-1.17c-1.52,0-3,0.25-4.44,0.74
			c-1.44,0.49-2.72,1.29-3.85,2.39c-1.14,1.1-2.04,2.54-2.71,4.31c-0.68,1.78-1.02,3.95-1.02,6.53c0,2.3,0.32,4.32,0.96,6.07
			c0.64,1.74,1.53,3.19,2.67,4.36c1.13,1.17,2.47,2.05,4.01,2.64s3.22,0.89,5.05,0.89c1.66,0,3.1-0.15,4.31-0.46
			c1.22-0.3,2.25-0.69,3.1-1.16L538.02,255.48z"/>
		<path d="M568.61,225.94h-11.97V257h-5.07v-31.07H539.6v-4.47h29.02V225.94z"/>
		<path d="M597.73,233.5l0.3-3.91h-0.2l-2.44,4.01L577.18,257h-3.09v-35.53h5.07v23.66l-0.46,3.86h0.26l2.53-4.01l18.16-23.5h3.15
			V257h-5.07V233.5z"/>
		<path d="M619.4,240.86h-2.48V257h-5.07v-35.53h5.07v16.35l2.33-0.71l12.79-15.63h5.78l-12.79,15.23l-2.38,1.73l2.79,2.03
			l14.1,16.55h-6.39L619.4,240.86z"/>
		<path d="M669.41,233.5l0.3-3.91h-0.2l-2.44,4.01L648.86,257h-3.09v-35.53h5.07v23.66l-0.46,3.86h0.26l2.53-4.01l18.16-23.5h3.15
			V257h-5.07V233.5z"/>
	</g>
</g>
</svg>
