<svg xmlns="http://www.w3.org/2000/svg" width="238.031" height="56.889" viewBox="0 0 238.031 56.889">
  <g id="Сгруппировать_330" data-name="Сгруппировать 330" transform="translate(0)">
    <path id="Контур_3391" data-name="Контур 3391" d="M114905.969,1786.848v-4.428h2.2v4.428a3.344,3.344,0,0,0,3.344,3.321h7.766v-7.749h2.234v8.855a5.545,5.545,0,0,1-5.562,5.535h-9.984l1.109-2.214h8.875a3.4,3.4,0,0,0,3.172-2.214h-7.609a5.531,5.531,0,0,1-5.547-5.535Z" transform="translate(-114823.867 -1773.7)" fill="#2b2a29" fill-rule="evenodd"/>
    <path id="Контур_3392" data-name="Контур 3392" d="M116539.531,1820.826h-2.719l-2.031-9.763-4.672,9a1.5,1.5,0,0,1-1.281.906,1.711,1.711,0,0,1-1.469-.906l-4.687-9-2.031,9.763h-2.7l3.141-12.832a1.75,1.75,0,0,1,.469-.906,1.416,1.416,0,0,1,.922-.418c.5,0,1.016.418,1.531,1.395l4.609,9.135,4.672-9.135c.5-.906.938-1.395,1.547-1.395a1.123,1.123,0,0,1,.906.418,2.079,2.079,0,0,1,.516.906Z" transform="translate(-116417.297 -1797.671)" fill="#2b2a29" fill-rule="evenodd"/>
    <path id="Контур_3393" data-name="Контур 3393" d="M118700.953,1832.747h2.469v-4.013h9.094v4.013h2.375V1818.8h-2.375v7.563h-9.094V1818.8h-2.469Z" transform="translate(-118575.203 -1809.661)" fill="#2b2a29" fill-rule="evenodd"/>
    <path id="Контур_3394" data-name="Контур 3394" d="M120118,1838.738h-3.141l-2.391-3.975h-7.734l-2.391,3.905h-3.156l7.641-12.552a1.692,1.692,0,0,1,.75-.836,1.6,1.6,0,0,1,1.109-.418,1.809,1.809,0,0,1,1.125.418,2.889,2.889,0,0,1,.781.906Zm-6.922-6.346h-4.875l2.484-4.045Z" transform="translate(-119957.375 -1815.652)" fill="#2b2a29" fill-rule="evenodd"/>
    <path id="Контур_3395" data-name="Контур 3395" d="M121851,1838.737h3.609l3.938-3.905h6.719v3.975h2.375v-13.948h-9.937a7.714,7.714,0,0,0-4.406,1.186,4.439,4.439,0,0,0-1.875,3.905,4.042,4.042,0,0,0,1.109,3,4.961,4.961,0,0,0,2.8,1.6Zm6.281-6.276h7.984v-5.231h-7.984c-2.234,0-3.359.907-3.359,2.65a2.137,2.137,0,0,0,1.063,1.953A3.788,3.788,0,0,0,121857.281,1832.461Z" transform="translate(-121689.031 -1815.651)" fill="#2b2a29" fill-rule="evenodd"/>
    <path id="Контур_3396" data-name="Контур 3396" d="M118279.969,3695.376a6.007,6.007,0,0,1,2.016-4.952,9.417,9.417,0,0,1,5.313-1.394h5.188l-1.125,2.37h-4.062a6.484,6.484,0,0,0-3.469.767,3.428,3.428,0,0,0-1.422,3.138v7.671h-2.375Z" transform="translate(-118159.07 -3658.384)" fill="#2b2a29" fill-rule="evenodd"/>
    <path id="Контур_3397" data-name="Контур 3397" d="M114770.953,3708.847h-3.109l-2.344-3.9-1.453-2.372-2.375-4.044-6.359,10.321h-3.156l7.625-12.552a1.686,1.686,0,0,1,.781-.837,1.535,1.535,0,0,1,1.109-.418,1.884,1.884,0,0,1,1.125.418,2.969,2.969,0,0,1,.75.906Z" transform="translate(-114671.82 -3664.325)" fill="#2b2a29" fill-rule="evenodd"/>
    <path id="Контур_3398" data-name="Контур 3398" d="M116473.125,3689.734a7.493,7.493,0,0,1-1.969,5.161,6.509,6.509,0,0,1-5.047,2.021h-3.891a6.886,6.886,0,0,1-5.047-2.021,7.563,7.563,0,0,1,0-10.111,6.933,6.933,0,0,1,5.047-1.883h3.891a6.933,6.933,0,0,1,5.047,1.883A6.748,6.748,0,0,1,116473.125,3689.734Zm-2.469.209a4.443,4.443,0,0,0-1.266-3.347,4.5,4.5,0,0,0-3.328-1.256h-3.922a4.686,4.686,0,0,0-3.344,1.256,4.169,4.169,0,0,0-1.266,3.347,4.387,4.387,0,0,0,1.266,3.277,4.466,4.466,0,0,0,3.344,1.186h3.922a4.747,4.747,0,0,0,3.328-1.186A4.388,4.388,0,0,0,116470.656,3689.943Z" transform="translate(-116355.313 -3652.325)" fill="#2b2a29" fill-rule="evenodd"/>
    <path id="Контур_3399" data-name="Контур 3399" d="M119598,3701.712c0,.836.328,1.394.906,1.394a2.733,2.733,0,0,0,1.547-.836l9.016-9v9.763h2.375v-12.832a1.138,1.138,0,0,0-.281-.837.8.8,0,0,0-.781-.348,2.219,2.219,0,0,0-1.406.766l-9.016,8.926v-9.692H119598Z" transform="translate(-119461.938 -3658.375)" fill="#2b2a29" fill-rule="evenodd"/>
    <path id="Контур_3400" data-name="Контур 3400" d="M121060.57,3696.916h-7.906a7.192,7.192,0,0,1-5.031-12.133,6.946,6.946,0,0,1,5.031-1.883h7.906l-1.109,2.371h-6.8a4.828,4.828,0,0,0-3.359,1.255,4.265,4.265,0,0,0-1.25,3.347,4.207,4.207,0,0,0,4.609,4.463h7.906Z" transform="translate(-120892.953 -3652.325)" fill="#2b2a29" fill-rule="evenodd"/>
    <path id="Контур_3401" data-name="Контур 3401" d="M122513.5,3691.47h-4.406v11.506h-2.422V3691.47H122500l1.078-2.44h13.5Z" transform="translate(-122330.563 -3658.383)" fill="#2b2a29" fill-rule="evenodd"/>
    <path id="Контур_3402" data-name="Контур 3402" d="M123994.984,3701.712c0,.836.359,1.394.922,1.394a2.586,2.586,0,0,0,1.516-.836l9.031-9v9.763h2.391v-12.832a1.216,1.216,0,0,0-.3-.837c-.141-.279-.406-.348-.781-.348a2.263,2.263,0,0,0-1.391.766l-9.016,8.926v-9.692h-2.375Z" transform="translate(-123808.367 -3658.375)" fill="#2b2a29" fill-rule="evenodd"/>
    <path id="Контур_3403" data-name="Контур 3403" d="M125764.2,3702.967h-3.641l-6.906-5.788c-.516-.418-.766-.768-.766-1.115s.25-.7.766-1.116l6.906-5.928h3.641l-8.328,7.113Z" transform="translate(-125546.047 -3658.375)" fill="#2b2a29" fill-rule="evenodd"/>
    <path id="Контур_3404" data-name="Контур 3404" d="M125517.344,3702.976h-2.359v-13.947h2.359Z" transform="translate(-125310.875 -3658.383)" fill="#2b2a29" fill-rule="evenodd"/>
    <path id="Контур_3405" data-name="Контур 3405" d="M126853.992,3708.857h-3.156l-2.312-3.9h-7.719l-2.422,3.9h-3.141l7.609-12.552a2.087,2.087,0,0,1,.766-.836,1.661,1.661,0,0,1,1.125-.419,1.735,1.735,0,0,1,1.109.419,2.822,2.822,0,0,1,.813.906Zm-6.859-6.276h-4.875l2.484-4.044Z" transform="translate(-126615.961 -3664.334)" fill="#2b2a29" fill-rule="evenodd"/>
    <path id="Контур_3390" data-name="Контур 3390" d="M107800.844,1039.25a9.435,9.435,0,0,1,12.953-3.5,9.613,9.613,0,0,1,3.469,13.071l-11.07,19.306h11.8l8.117-14.154a19.962,19.962,0,0,0-7.227-27.147,19.581,19.581,0,0,0-26.883,7.274l-10.234,17.848a5.2,5.2,0,0,0,1.906,7.038,5.063,5.063,0,0,0,6.953-1.886l10.219-17.848Zm-6.57,20.311a9.435,9.435,0,0,1-12.961,3.5,9.61,9.61,0,0,1-3.461-13.07l10.2-17.848a5.159,5.159,0,0,0-1.852-7.038,5.087,5.087,0,0,0-6.984,1.886l-10.2,17.848a19.969,19.969,0,0,0,7.2,27.147,19.548,19.548,0,0,0,9.477,2.662l-3.687,6.4h11.8l9.547-16.725v0l9.984-17.451a5.184,5.184,0,0,0-1.867-7.038,5.069,5.069,0,0,0-6.969,1.886Z" transform="translate(-107766.359 -1024.158)" fill="#2b2a29" fill-rule="evenodd"/>
  </g>
</svg>
