<svg width="143" height="50" viewBox="0 0 143 50" fill="none" xmlns="http://www.w3.org/2000/svg">
<path d="M57.615 43.0368C55.8771 43.0368 54.6003 42.6289 53.7846 41.8132C52.9689 40.9975 52.561 39.7207 52.561 37.9829V29.471C52.561 27.609 52.9778 26.2613 53.8112 25.4278C54.6624 24.5766 56.019 24.151 57.881 24.151H67.4569V27.875H58.945C57.881 27.875 57.349 28.407 57.349 29.471V37.9829C57.349 38.3907 57.4643 38.7188 57.6948 38.9671C57.943 39.1976 58.2711 39.3128 58.679 39.3128C59.0159 39.3128 59.406 39.3128 59.8494 39.3128C60.2927 39.2951 60.7537 39.2774 61.2325 39.2596C61.7113 39.2419 62.1901 39.2242 62.6689 39.2065C63.1655 39.1887 63.6443 39.1621 64.1053 39.1267C65.187 39.0557 66.3042 38.9848 67.4569 38.9139V42.5048C66.2688 42.6112 65.0895 42.6999 63.9191 42.7708C62.9083 42.8417 61.8355 42.9038 60.7006 42.957C59.5834 43.0102 58.5548 43.0368 57.615 43.0368Z" fill="#06C2E4"/>
<path d="M72.9129 42.7708H67.726L74.7749 24.151H80.0949L87.1438 42.7708H81.9569L80.7599 39.4458H74.1099L72.9129 42.7708ZM75.3069 35.9879H79.5629L77.4349 29.7369L75.3069 35.9879Z" fill="#06C2E4"/>
<path d="M88.4727 24.151H99.6446C101.507 24.151 102.854 24.5766 103.688 25.4278C104.539 26.2613 104.965 27.609 104.965 29.471V31.8649C104.965 33.3368 104.716 34.4806 104.22 35.2963C103.741 36.112 102.97 36.6529 101.906 36.9189L105.231 42.7708H100.044L96.9847 37.1849H93.2607V42.7708H88.4727V24.151ZM100.177 29.471C100.177 28.407 99.6446 27.875 98.5806 27.875H93.2607V33.4609H98.5806C99.6446 33.4609 100.177 32.9289 100.177 31.8649V29.471Z" fill="#06C2E4"/>
<path d="M112.139 43.0368C110.401 43.0368 109.125 42.6289 108.309 41.8132C107.493 40.9975 107.085 39.7207 107.085 37.9829V29.471C107.085 27.609 107.502 26.2613 108.335 25.4278C109.187 24.5766 110.543 24.151 112.405 24.151H121.981V27.875H113.469C112.405 27.875 111.873 28.407 111.873 29.471V37.9829C111.873 38.3907 111.988 38.7188 112.219 38.9671C112.467 39.1976 112.795 39.3128 113.203 39.3128C113.735 39.3128 114.32 39.3128 114.959 39.3128C115.615 39.2951 116.227 39.2774 116.794 39.2596C117.45 39.2419 118.115 39.2153 118.789 39.1799V35.3229H115.331V32.1309H123.577V42.3718C122.247 42.5137 120.908 42.629 119.561 42.7176C118.408 42.8063 117.167 42.8772 115.837 42.9304C114.507 43.0013 113.274 43.0368 112.139 43.0368Z" fill="#06C2E4"/>
<path d="M138.212 29.205C138.212 28.141 137.68 27.609 136.616 27.609H132.094C131.03 27.609 130.498 28.141 130.498 29.205V37.7169C130.498 38.7809 131.03 39.3128 132.094 39.3128H136.616C137.68 39.3128 138.212 38.7809 138.212 37.7169V29.205ZM143 37.7169C143 39.5788 142.575 40.9354 141.723 41.7866C140.89 42.6201 139.542 43.0368 137.68 43.0368H131.03C129.168 43.0368 127.812 42.6201 126.96 41.7866C126.127 40.9354 125.71 39.5788 125.71 37.7169V29.205C125.71 27.343 126.127 25.9953 126.96 25.1618C127.812 24.3106 129.168 23.885 131.03 23.885H137.68C139.542 23.885 140.89 24.3106 141.723 25.1618C142.575 25.9953 143 27.343 143 29.205V37.7169Z" fill="#06C2E4"/>
<path d="M57.0829 9.68373C57.0829 10.7477 57.6149 11.2797 58.6789 11.2797H63.4668C65.2047 11.2797 66.4814 11.6876 67.2972 12.5033C68.1129 13.319 68.5208 14.5958 68.5208 16.3337V17.6636C68.5208 19.4015 68.1129 20.6783 67.2972 21.494C66.4814 22.3097 65.2047 22.7176 63.4668 22.7176C62.9348 22.7176 62.3674 22.7087 61.7644 22.691C61.1792 22.6733 60.5763 22.6467 59.9556 22.6112C59.3527 22.5935 58.7409 22.5669 58.1203 22.5314C57.5173 22.5137 56.941 22.4871 56.3913 22.4516C55.0968 22.3807 53.8111 22.292 52.5343 22.1856V18.5946C53.8288 18.6656 55.0879 18.7365 56.3115 18.8074C57.3577 18.8606 58.4395 18.905 59.5566 18.9404C60.6738 18.9759 61.6226 18.9936 62.4028 18.9936C62.8107 18.9936 63.1299 18.8784 63.3604 18.6478C63.6087 18.3996 63.7328 18.0715 63.7328 17.6636V15.2697H57.6149C55.7529 15.2697 54.3963 14.8529 53.5451 14.0195C52.7117 13.1683 52.2949 11.8117 52.2949 9.94972V9.15173C52.2949 7.28975 52.7117 5.94203 53.5451 5.10858C54.3963 4.25738 55.7529 3.83179 57.6149 3.83179H66.9514V7.55575H58.6789C57.6149 7.55575 57.0829 8.08774 57.0829 9.15173V9.68373Z" fill="#1E4B91"/>
<path d="M71.7106 3.83179H82.8825C84.7445 3.83179 86.0922 4.25738 86.9257 5.10858C87.7769 5.94203 88.2025 7.28975 88.2025 9.15173V11.8117C88.2025 13.6737 87.7769 15.0303 86.9257 15.8815C86.0922 16.7149 84.7445 17.1316 82.8825 17.1316H76.4986V22.4516H71.7106V3.83179ZM83.4145 9.15173C83.4145 8.08774 82.8825 7.55575 81.8185 7.55575H76.4986V13.4077H81.8185C82.8825 13.4077 83.4145 12.8757 83.4145 11.8117V9.15173Z" fill="#1E4B91"/>
<path d="M93.1338 22.4516H87.9469L94.9958 3.83179H100.316L107.365 22.4516H102.178L100.981 19.1266H94.3308L93.1338 22.4516ZM95.5278 15.6687H99.7837L97.6558 9.41773L95.5278 15.6687Z" fill="#1E4B91"/>
<path d="M113.494 22.7176C111.756 22.7176 110.479 22.3097 109.664 21.494C108.848 20.6783 108.44 19.4015 108.44 17.6636V9.15173C108.44 7.28975 108.857 5.94203 109.69 5.10858C110.541 4.25738 111.898 3.83179 113.76 3.83179H123.336V7.55575H114.824C113.76 7.55575 113.228 8.08774 113.228 9.15173V17.6636C113.228 18.0715 113.343 18.3996 113.574 18.6478C113.822 18.8784 114.15 18.9936 114.558 18.9936C114.895 18.9936 115.285 18.9936 115.728 18.9936C116.172 18.9759 116.633 18.9582 117.112 18.9404C117.59 18.9227 118.069 18.905 118.548 18.8872C119.045 18.8695 119.523 18.8429 119.984 18.8074C121.066 18.7365 122.183 18.6656 123.336 18.5946V22.1856C122.148 22.292 120.969 22.3807 119.798 22.4516C118.787 22.5225 117.715 22.5846 116.58 22.6378C115.462 22.691 114.434 22.7176 113.494 22.7176Z" fill="#1E4B91"/>
<path d="M141.028 22.4516H126.265V3.83179H141.028V7.55575H131.053V11.1467H138.9V14.8707H131.053V18.7276H141.028V22.4516Z" fill="#1E4B91"/>
<path d="M30.371 45.9221C28.3176 47.1437 26.809 47.4805 25.8452 46.9324C24.8813 46.3843 24.3994 44.9156 24.3994 42.5263V30.8237C24.3994 28.2637 24.8918 26.1179 25.8766 24.3861C26.8823 22.6175 28.4852 21.0787 30.6852 19.7698L41.9997 13.0384V18.1583L31.9424 24.1418C30.6852 24.8898 30.0567 25.9951 30.0567 27.458V39.1606C30.0567 39.7214 30.1929 40.0914 30.4652 40.2706C30.7586 40.4131 31.1462 40.3409 31.6281 40.0542C32.0262 39.8174 32.4872 39.5431 33.011 39.2315C33.5348 38.8955 34.0796 38.547 34.6453 38.186C35.211 37.8251 35.7768 37.4641 36.3425 37.1032C36.9292 36.7298 37.4949 36.3566 38.0397 35.9838C39.3178 35.1258 40.6378 34.243 41.9997 33.3352V38.2723C40.5959 39.2537 39.2025 40.2046 37.8197 41.1248C36.6253 41.9329 35.3577 42.7724 34.0167 43.6433C32.6967 44.5018 31.4814 45.2614 30.371 45.9221Z" fill="#1E4B91"/>
<path fill-rule="evenodd" clip-rule="evenodd" d="M0.916504 15.4711C0.916504 12.3431 3.11253 11.0752 5.82146 12.6392L17.5312 19.3998C20.2401 20.9638 22.4361 24.7675 22.4361 27.8955V43.7462C22.4361 46.8742 20.2401 48.1421 17.5312 46.5781L5.82146 39.8175C3.11253 38.2535 0.916504 34.4499 0.916504 31.3218V15.4711ZM5.82146 18.303V34.1537L17.5312 40.9143V25.0636L5.82146 18.303Z" fill="#CCCCCC"/>
<path d="M14.9085 10.4103C16.0529 11.0709 17.171 11.086 18.263 10.4556L23.1771 7.61871C24.9607 6.58903 26.7098 6.08577 28.4243 6.10892C30.1388 6.13208 31.9306 6.68316 33.7997 7.76217L35.2301 8.58794C37.0992 9.66696 38.0538 10.7014 38.0939 11.6912C38.134 12.681 37.2622 13.6907 35.4786 14.7204C34.9326 15.0356 34.3406 15.3663 33.7028 15.7125C33.0831 16.0482 32.4357 16.389 31.7605 16.7347C31.1226 17.0809 30.4661 17.4269 29.791 17.7726C29.1531 18.1188 28.533 18.4438 27.9306 18.7475C26.5257 19.4705 25.1109 20.1772 23.686 20.8676L19.8239 18.638C21.2288 17.9151 22.5973 17.2131 23.9294 16.5322C25.0604 15.9453 26.2183 15.3319 27.4031 14.692C28.5878 14.052 29.5806 13.5009 30.3814 13.0386C30.8 12.797 31.0037 12.5363 30.9923 12.2565C30.9801 11.9553 30.7547 11.6781 30.316 11.4248L27.7413 9.93843L21.4622 13.5633C19.5512 14.6666 17.7107 15.2116 15.9407 15.1985C14.1698 15.1638 12.2831 14.5684 10.2806 13.4123L9.42232 12.9169C7.41974 11.7608 6.39797 10.6771 6.35699 9.66577C6.31514 8.63294 7.24972 7.56491 9.16074 6.46168L18.7431 0.929758L22.7483 3.24193L14.2579 8.14343C13.1659 8.77385 13.192 9.41937 14.3364 10.08L14.9085 10.4103Z" fill="#06C2E4"/>
</svg>
