<svg id="vk" xmlns="http://www.w3.org/2000/svg" width="22.212" height="22.212" viewBox="0 0 22.212 22.212">
  <path id="Контур_84" data-name="Контур 84" d="M11.106,0A11.106,11.106,0,1,0,22.212,11.106,11.106,11.106,0,0,0,11.106,0ZM16.74,12.307a21.119,21.119,0,0,1,1.53,1.539,4.361,4.361,0,0,1,.548.789c.211.409.02.858-.346.882H16.2a1.758,1.758,0,0,1-1.45-.59c-.315-.32-.607-.662-.91-.993a2.128,2.128,0,0,0-.41-.364.475.475,0,0,0-.757.184,2.383,2.383,0,0,0-.24,1.062c-.025.536-.187.677-.725.7a5.826,5.826,0,0,1-3.256-.7,7.187,7.187,0,0,1-2.191-2.051A27.639,27.639,0,0,1,3.374,7.625c-.182-.405-.049-.622.4-.63.743-.014,1.485-.012,2.228,0a.655.655,0,0,1,.618.463,13.825,13.825,0,0,0,1.51,2.8,2.392,2.392,0,0,0,.571.627.346.346,0,0,0,.589-.173,1.908,1.908,0,0,0,.131-.587,8.769,8.769,0,0,0-.036-2.056.858.858,0,0,0-.731-.785c-.217-.041-.185-.122-.08-.246a.818.818,0,0,1,.7-.347h2.571c.405.08.5.261.551.669l0,2.857c0,.158.079.626.363.729.227.075.377-.107.513-.251a8.885,8.885,0,0,0,1.449-2.226c.174-.352.323-.717.469-1.083a.553.553,0,0,1,.581-.4l2.475,0A1.288,1.288,0,0,1,18.464,7c.417.071.531.251.4.658a6.168,6.168,0,0,1-.984,1.706c-.414.572-.855,1.123-1.264,1.7C16.243,11.587,16.272,11.851,16.74,12.307Z" fill="#fff"/>
</svg>
