<svg id="youtube" xmlns="http://www.w3.org/2000/svg" width="22.212" height="22.212" viewBox="0 0 22.212 22.212">
  <path id="Контур_85" data-name="Контур 85" d="M224.113,212.2l3.613-2.081-3.613-2.081Zm0,0" transform="translate(-214.39 -199.014)" fill="#fff"/>
  <path id="Контур_86" data-name="Контур 86" d="M11.106,0A11.106,11.106,0,1,0,22.212,11.106,11.107,11.107,0,0,0,11.106,0Zm6.94,11.117a18.33,18.33,0,0,1-.286,3.338,1.739,1.739,0,0,1-1.223,1.223,42.212,42.212,0,0,1-5.431.286,40.7,40.7,0,0,1-5.431-.3,1.739,1.739,0,0,1-1.223-1.223,18.25,18.25,0,0,1-.286-3.338,18.318,18.318,0,0,1,.286-3.338A1.774,1.774,0,0,1,5.676,6.533a42.212,42.212,0,0,1,5.431-.286,40.615,40.615,0,0,1,5.431.3A1.739,1.739,0,0,1,17.76,7.768,17.4,17.4,0,0,1,18.046,11.117Zm0,0" fill="#fff"/>
</svg>
