<svg id="Сгруппировать_329" data-name="Сгруппировать 329" xmlns="http://www.w3.org/2000/svg" width="205.82" height="61.56" viewBox="0 0 205.82 61.56">
  <path id="Контур_3408" data-name="Контур 3408" d="M79891.57,709.781c1.516.28,25.594.11,29.25.11l-.18-29.079c-3.453,0-27.875-.218-29.07.11Zm13.656-18.943c-6.555,1.532-4.187,11.265,2.258,9.716a4.988,4.988,0,0,0-2.258-9.716Zm-.1,1.646c-4.359,1.664-1.977,7.858,2.219,6.535a3.521,3.521,0,0,0,2.242-4.442A3.456,3.456,0,0,0,79905.125,692.485Zm.039-.879c-5.617,1.587-3.109,9.873,2.445,8.2a4.342,4.342,0,0,0,2.8-5.338,4.233,4.233,0,0,0-5.242-2.858Zm-1.43-5.914c-.8.63-1.43.491-2.477.223-3.078-.8-1.109,2.7-2.93,3.241-1.07.32-1.9-.2-2.352.819-.516,1.237.5,1.5.516,2.554.039,1.212-.75,1.37-1.367,1.865a1.51,1.51,0,0,0-.039,2.311c.656.627,1.242.589,1.492,1.536.258,1.071-.492,1.7-.375,2.766.273,2.66,3.07-.124,3.555,2.864.164,1.037.359,1.712,1.453,1.742.984.028,1.43-.817,2.469-.775,1.156.047,1.18.911,1.766,1.486a1.57,1.57,0,0,0,2.344-.145c.547-.677.477-1.169,1.625-1.345.992-.148,1.594.578,2.555.461,2.242-.259.227-3.107,2.469-3.951,2.141-.795,3.172-.848,1.859-3.221-1.383-2.464,1.68-2.089,1.367-3.947-.281-1.46-1.453-1.038-1.961-1.654-.9-1.041.773-2.327.219-3.526-.531-1.185-3.055-.151-3.578-1.59-.375-.993,0-1.808-.906-2.289-1.062-.557-1.57.108-2.359.458-1.7.777-1.93-1.705-3.406-1.606-1.18.078-1.039,1.036-1.937,1.724Z" transform="translate(-79891.57 -680.741)" fill="#ed1c24" fill-rule="evenodd"/>
  <path id="Контур_3409" data-name="Контур 3409" d="M82790.391,955.523c0,8,4.555,11.27,12.383,11.27a17.855,17.855,0,0,0,7.617-1.531c1.688-.929,3.977-3.164,3.031-6.093-.437-.5-2.906-.375-3.594-.375-3.484,0-1.758,3.27-7.055,3.27-4.445,0-5.266-2.609-5.266-6.54,0-8.459,7.7-6.009,8.906-4.875,2.07,1.958.156,2.047,5.531,2.047,2.586,0,1.656-4.215-1.062-5.99-4.414-2.871-20.492-4.588-20.492,8.818Zm94.281-11.7c-1.07.443-.914.882-.906,2.15,0,.931-.18,2.283.336,2.811.57.566,4.711.658,5.75.318,1.43-.466.938-4.621.43-5.081-.492-.437-4.922-.5-5.609-.2Zm-.727,8.872v12.551c0,1.9,2.086,1.371,5.43,1.371,1.031,0,1.469-.136,1.469-1.194,0-3.154.133-10.937-.07-13.581-1.219-.718-3.3-.472-5.094-.472C82884.438,951.369,82883.945,951.5,82883.945,952.695Zm18.875,1.06h3.539c1.578,0,2.469.259,3.016-.563a3.976,3.976,0,0,0,.016-2.786c-.547-.817-1.8-.542-3.031-.541h-3.539c0-1.476-.008-2.952,0-4.427.031-2.159-.7-1.9-2.648-1.894-5.164.022-4.25-.342-4.25,4.907v9.193c0,2.972.2,5.813,1.93,7.263,2.594,2.188,7.813,2.082,11.359,1.631,1.727-.218,2.156-.924,1.758-2.876-.437-2.182-5.023.518-7.242-1.631C82902.273,960.6,82902.82,956.147,82902.82,953.755Zm36.953-2.828c0,7.245,11.344,6.534,14.281,8.524,1.359.921.914,2.877-3.336,2.877-5.32,0-3.648-2.342-7.062-2.342-2.648,0-4.555-.416-3.7,2.592,1.125,3.93,7.258,4.215,10.766,4.215,4.531,0,11.094-1.017,10.922-6.493a5.225,5.225,0,0,0-1.977-3.977c-3.125-2.887-12.055-2.922-12.883-4.826-1.07-2.516,5.023-2.949,7.273-1.417,2.172,1.482.2,1.422,5.508,1.422,1.672,0,1.625-1.477,1.188-2.812-1.3-3.783-7.539-3.949-11.086-3.949C82945.094,944.74,82939.773,946.251,82939.773,950.927Zm-23.344.574h2.656c2.859,0,1.633-2.3,6.367-2.3,2.469,0,4.1,1.274,3.719,3.978-5.875,0-12.992-.609-15.258,4.051-2.4,4.857,1.523,9.561,8.891,9.561,2.094,0,5.734-.832,6.82-2.1l.469,1.2c.523.768,2.977.5,4.367.5,1.141,0,1.68-.336,1.68-1.5v-12.02c0-10.462-15.516-8.625-18.9-6.61-2.43,1.451-3.539,5.24-.812,5.24Zm12.8,9.2v-3.06c-1.945,0-3.945-.031-5.922,0-4.469.061-4.383,5.372,1.43,4.6a16.05,16.05,0,0,0,4.492-1.54Zm-113.6-5.535v1.238c0,7.081,4.992,10.386,12.055,10.386,7.438,0,11.938-3.585,11.938-11.093,0-7.934-4.969-10.96-12.469-10.96C82820.391,944.74,82815.633,948.333,82815.633,955.169Zm10.852-5.877c-3.523.619-4.2,3.766-3.914,7.65.25,3.734,2.1,6.029,6.328,5.289,3.414-.6,4.008-4.148,3.758-7.774C82832.406,950.771,82830.445,948.6,82826.484,949.292Zm23.664-1.879c-.031-1.678.039-2.273-1.773-2.284-6.172-.041-5.172-1.131-5.172,7.389l.016,12.56c.148,1.658,1.414,1.32,3.031,1.316,4.648-.011,3.9.061,3.9-4.508,0-1.406-.281-9.189.242-10.011,1.742-2.727,7.375-4.741,7.359,2.764-.008,2.769,0,5.539,0,8.309-.008,3.859-.391,3.469,4.953,3.456,2.6-.007,1.984-1.257,1.984-6.461,0-1.432-.32-7.329.3-8.14,1.18-1.522,3.648-3.125,5.656-1.922,1.9,1.15,1.656,4.164,1.656,6.7,0,9.515-.984,9.831,2.766,9.812,1.477-.008,2.859.2,3.938-.377.422-1.58.172-7.813.172-9.965,0-3.5.094-6-1.8-8.495-3.484-4.658-11.469-2.889-13.906.782-.664-.276-.094.17-.68-.515-.836-.973-.109-.588-1.891-1.82a8.68,8.68,0,0,0-7.82-.626,7.826,7.826,0,0,0-1.547.927C82850.938,946.723,82850.719,947.085,82850.148,947.413Z" transform="translate(-82757.586 -940.558)" fill="#2b2a29" fill-rule="evenodd"/>
  <path id="Контур_3410" data-name="Контур 3410" d="M80013.688,4302.039h.984v3.215a1.3,1.3,0,0,0,.922-.259,3.907,3.907,0,0,0,.672-1.241,6.886,6.886,0,0,1,.531-1.021,1.449,1.449,0,0,1,.563-.5,1.561,1.561,0,0,1,.8-.2c.375,0,.578,0,.578.01v.839c-.016,0-.109,0-.172,0l-.2-.005a.98.98,0,0,0-.7.225,3.2,3.2,0,0,0-.516.961,3.488,3.488,0,0,1-.625,1.175,1.821,1.821,0,0,1-.609.387,2.638,2.638,0,0,1,1.391,1.312l1.516,2.44h-1.2l-1.234-1.985a4.92,4.92,0,0,0-.844-1.134,1.192,1.192,0,0,0-.859-.31v3.429h-.984v-7.329Zm6.906,3.762a3.97,3.97,0,0,1,1-2.853,3.262,3.262,0,0,1,2.516-1.031,3.622,3.622,0,0,1,1.844.485,3.19,3.19,0,0,1,1.234,1.351,4.427,4.427,0,0,1,.438,1.962,4.355,4.355,0,0,1-.469,1.993,2.994,2.994,0,0,1-1.281,1.331,3.568,3.568,0,0,1-1.766.452,3.394,3.394,0,0,1-1.844-.5,3.1,3.1,0,0,1-1.234-1.362A4.125,4.125,0,0,1,80020.594,4305.8Zm1.016.017a2.885,2.885,0,0,0,.719,2.083,2.289,2.289,0,0,0,1.766.761,2.358,2.358,0,0,0,1.813-.767,3.119,3.119,0,0,0,.719-2.18,3.491,3.491,0,0,0-.328-1.56,2.291,2.291,0,0,0-.875-1.032,2.415,2.415,0,0,0-1.3-.366,2.446,2.446,0,0,0-1.766.706A3.065,3.065,0,0,0,80021.609,4305.818Zm8.609,3.55v-7.329h1.453l1.734,5.188c.156.482.281.844.359,1.084.063-.266.2-.658.375-1.176l1.766-5.1h1.3v7.33h-.922v-6.131l-2.141,6.131h-.859l-2.141-6.244v6.244Zm9.953-7.329h5.734v7.329h-.969V4302.9h-3.8v6.468h-.969Zm9.266,0H80054v7.329h-.969V4302.9h-2.625v3.774a10.336,10.336,0,0,1-.109,1.685,1.441,1.441,0,0,1-.453.834,1.289,1.289,0,0,1-.875.3,2.784,2.784,0,0,1-.781-.133l.188-.86a.82.82,0,0,0,.391.124.521.521,0,0,0,.484-.249,2.269,2.269,0,0,0,.188-1.168Zm7.563,7.329v-7.329h5.3v.86h-4.312v2.25h4.031v.861h-4.031v2.5h4.5v.86Zm8.2-7.329h.984v3.214a1.3,1.3,0,0,0,.922-.259,4.486,4.486,0,0,0,.7-1.241,5.035,5.035,0,0,1,.5-1.021,1.465,1.465,0,0,1,.563-.5,1.662,1.662,0,0,1,.8-.2c.391,0,.578,0,.609.01v.839c-.047,0-.109,0-.2,0l-.2-.005a.935.935,0,0,0-.687.226,3.492,3.492,0,0,0-.531.96,3.516,3.516,0,0,1-.625,1.176,1.785,1.785,0,0,1-.594.387,2.742,2.742,0,0,1,1.391,1.311l1.516,2.44h-1.187l-1.234-1.985a6.7,6.7,0,0,0-.859-1.134,1.284,1.284,0,0,0-.875-.31v3.429h-.984Zm12.438,4.758.969.244a3.235,3.235,0,0,1-1.094,1.821,3.03,3.03,0,0,1-1.937.627,3.512,3.512,0,0,1-1.922-.483,3.008,3.008,0,0,1-1.125-1.395,5.136,5.136,0,0,1-.391-1.963,4.073,4.073,0,0,1,.453-2,2.909,2.909,0,0,1,1.25-1.3,3.457,3.457,0,0,1,1.75-.441,2.988,2.988,0,0,1,1.844.559,2.951,2.951,0,0,1,1.047,1.574l-.937.226a2.341,2.341,0,0,0-.734-1.165,2.009,2.009,0,0,0-1.234-.364,2.351,2.351,0,0,0-1.406.4,2.064,2.064,0,0,0-.781,1.085,3.977,3.977,0,0,0-.266,1.409,4.329,4.329,0,0,0,.3,1.63,1.9,1.9,0,0,0,.859,1.042,2.252,2.252,0,0,0,1.234.345,2.03,2.03,0,0,0,1.359-.468A2.375,2.375,0,0,0,80077.641,4306.8Zm3.594,2.57v-7.329h.969v3.019h3.781v-3.019h.984v7.329h-.984v-3.449h-3.781v3.449Zm7.938,0,2.813-7.329h1.063l2.969,7.329h-1.094l-.859-2.221h-3.078l-.8,2.221Zm2.109-3.009h2.484l-.766-2.032c-.234-.616-.391-1.128-.531-1.531a11.131,11.131,0,0,1-.391,1.411Zm12.688,3.009v-7.329h-3.25a4.321,4.321,0,0,0-1.484.2,1.564,1.564,0,0,0-.8.7,1.962,1.962,0,0,0-.328,1.1,1.819,1.819,0,0,0,.516,1.314,2.542,2.542,0,0,0,1.563.68,2.7,2.7,0,0,0-.609.365,4.912,4.912,0,0,0-.781.976l-1.281,2h1.219l.969-1.525c.281-.442.516-.778.688-1.011a3.673,3.673,0,0,1,.484-.491,1.814,1.814,0,0,1,.453-.193,3.076,3.076,0,0,1,.547-.035H80103v3.255Zm-.969-4.095h-2.078a3.333,3.333,0,0,1-1.062-.138,1.137,1.137,0,0,1-.547-.44,1.194,1.194,0,0,1,.188-1.512,1.711,1.711,0,0,1,1.188-.335H80103Zm8.875,4.095,2.813-7.329h1.047l3,7.329h-1.109l-.859-2.221h-3.078l-.8,2.221Zm2.109-3.009h2.484l-.766-2.032c-.219-.616-.406-1.128-.516-1.531a11.2,11.2,0,0,1-.406,1.411Zm6.859,3.009v-7.329h2.734a3.478,3.478,0,0,1,1.359.221,1.823,1.823,0,0,1,.781.687,1.714,1.714,0,0,1,.3.966,1.65,1.65,0,0,1-.266.883,1.771,1.771,0,0,1-.75.671,1.963,1.963,0,0,1,1.016.666,1.71,1.71,0,0,1,.359,1.109,2.019,2.019,0,0,1-.234.959,1.727,1.727,0,0,1-.516.682,2.325,2.325,0,0,1-.812.362,4.826,4.826,0,0,1-1.187.123Zm.969-4.249h1.578a3.7,3.7,0,0,0,.938-.084.972.972,0,0,0,.734-1.008,1.242,1.242,0,0,0-.172-.643.91.91,0,0,0-.5-.382,4.267,4.267,0,0,0-1.109-.1h-1.469Zm0,3.389h1.813a4.487,4.487,0,0,0,.672-.035,1.659,1.659,0,0,0,.563-.2,1.1,1.1,0,0,0,.359-.409,1.16,1.16,0,0,0,.141-.62,1.2,1.2,0,0,0-.187-.714,1.26,1.26,0,0,0-.594-.427,3.585,3.585,0,0,0-1.078-.123h-1.687Zm8.453.86V4302.9h-2.422v-.86h5.813v.86h-2.406v6.468Zm5-3.567a3.963,3.963,0,0,1,.984-2.853,3.343,3.343,0,0,1,2.531-1.031,3.541,3.541,0,0,1,1.844.485,3.19,3.19,0,0,1,1.234,1.351,4.427,4.427,0,0,1,.438,1.962,4.348,4.348,0,0,1-.453,1.993,3.134,3.134,0,0,1-1.266,1.331,3.775,3.775,0,0,1-1.8.452,3.471,3.471,0,0,1-1.844-.5,3.193,3.193,0,0,1-1.234-1.362A3.924,3.924,0,0,1,80135.266,4305.8Zm1,.017a2.954,2.954,0,0,0,.719,2.083,2.379,2.379,0,0,0,1.8.761,2.325,2.325,0,0,0,1.8-.767,3.114,3.114,0,0,0,.7-2.18,3.983,3.983,0,0,0-.3-1.56,2.291,2.291,0,0,0-.875-1.032,2.573,2.573,0,0,0-3.094.34A3.126,3.126,0,0,0,80136.266,4305.818Zm8.625,3.55v-7.329h1.438l1.766,5.188q.211.724.328,1.084c.094-.266.219-.658.406-1.176l1.766-5.1h1.313v7.33h-.953v-6.131l-2.125,6.131h-.891l-2.125-6.244v6.244Zm9.125,0,2.813-7.329h1.063l2.984,7.329h-1.094l-.844-2.221h-3.078l-.812,2.221Zm2.109-3.009h2.5l-.781-2.032c-.2-.616-.391-1.128-.516-1.531a11.131,11.131,0,0,1-.391,1.411Zm7.953,3.009V4302.9h-2.391v-.86h5.8v.86h-2.422v6.468Zm5.781-7.329h.906v5.8l3.906-5.8h.969v7.329h-.891v-5.79l-3.891,5.79h-1Zm8.344,5.26.922-.235a2.218,2.218,0,0,0,.563,1.065,1.485,1.485,0,0,0,1.188.532,1.783,1.783,0,0,0,1.234-.4,1.274,1.274,0,0,0,.438-.955,1.2,1.2,0,0,0-.437-.961,2.191,2.191,0,0,0-1.3-.359h-.453v-.85a5.1,5.1,0,0,0,1.016-.077,1.122,1.122,0,0,0,.609-.394.983.983,0,0,0,.281-.72,1.146,1.146,0,0,0-.359-.83,1.466,1.466,0,0,0-1.031-.354,1.581,1.581,0,0,0-.922.278,1.462,1.462,0,0,0-.547.737,3.481,3.481,0,0,0-.141.684l-.937-.215a2.388,2.388,0,0,1,2.578-2.333,2.312,2.312,0,0,1,1.688.6,1.865,1.865,0,0,1,.641,1.393,1.76,1.76,0,0,1-.969,1.586,1.836,1.836,0,0,1,.938.633,1.8,1.8,0,0,1,.375,1.143,2.041,2.041,0,0,1-.75,1.583,2.78,2.78,0,0,1-1.922.639A2.627,2.627,0,0,1,80178.2,4307.3Zm7.156,2.069,2.8-7.329h1.078l2.984,7.329h-1.094l-.875-2.221h-3.062l-.781,2.221Zm2.109-3.009h2.5l-.781-2.032c-.219-.616-.391-1.128-.516-1.531a11.131,11.131,0,0,1-.391,1.411Zm6.922-4.319h.984v6.469h3.8v-6.469h.984v6.469h.641v2.9h-.844v-2.037h-5.562Zm8.953,0h.875v5.8l3.906-5.8h.969v7.329h-.875v-5.79l-3.891,5.79h-.984Zm14.531,7.329v-7.329h-3.25a4.4,4.4,0,0,0-1.516.2,1.564,1.564,0,0,0-.8.7,1.948,1.948,0,0,0-.312,1.1,1.807,1.807,0,0,0,.5,1.314,2.542,2.542,0,0,0,1.563.68,2.4,2.4,0,0,0-.578.365,5.614,5.614,0,0,0-.812.976l-1.25,2h1.2l.969-1.525a11.63,11.63,0,0,1,.7-1.011,1.823,1.823,0,0,1,.484-.491,1.352,1.352,0,0,1,.438-.193,3.076,3.076,0,0,1,.547-.035h1.125v3.255Zm-.984-4.095h-2.094a3.062,3.062,0,0,1-1.031-.138,1.047,1.047,0,0,1-.562-.44,1.234,1.234,0,0,1-.2-.656,1.1,1.1,0,0,1,.375-.855,1.766,1.766,0,0,1,1.188-.335h2.328Zm-203.2,8.2h.891v5.805l3.906-5.805h.953v7.33h-.875v-5.789l-3.891,5.789h-.984Zm8.766,7.33v-7.33h.953v3.021h3.8v-3.021h1v7.33h-1v-3.45h-3.8v3.45Zm9.391-7.33h4.469v6.469h.672v2.568h-.891V4320.8h-4.844v1.708h-.844v-2.568h.547q.891-1.335.891-5.4Zm3.5.86h-2.562v.376a23.73,23.73,0,0,1-.187,2.563,7.545,7.545,0,0,1-.656,2.671h3.406Zm3.531-.86h.953l2.422,4.506,2.094-4.506h.938l-2.734,5.7a6.363,6.363,0,0,1-.844,1.4,1.353,1.353,0,0,1-.953.329,3.038,3.038,0,0,1-.922-.174v-.829a1.654,1.654,0,0,0,.844.225.908.908,0,0,0,.594-.229,3.088,3.088,0,0,0,.563-1.039l-2.953-5.384Zm13.844,4.758.969.246a3.325,3.325,0,0,1-1.094,1.821,3.025,3.025,0,0,1-1.937.628,3.536,3.536,0,0,1-1.937-.483,3.111,3.111,0,0,1-1.125-1.4,4.854,4.854,0,0,1-.375-1.963,4.254,4.254,0,0,1,.438-2,2.89,2.89,0,0,1,1.234-1.3,3.659,3.659,0,0,1,1.781-.44,2.877,2.877,0,0,1,1.828.559,2.808,2.808,0,0,1,1.063,1.573l-.953.225a2.343,2.343,0,0,0-.734-1.163,1.953,1.953,0,0,0-1.219-.365,2.4,2.4,0,0,0-1.422.4,2.244,2.244,0,0,0-.781,1.087,4.612,4.612,0,0,0,.047,3.039,1.811,1.811,0,0,0,.844,1.042,2.3,2.3,0,0,0,1.234.345,2.139,2.139,0,0,0,1.391-.469,2.542,2.542,0,0,0,.75-1.4Zm5.063,2.572v-6.47h-2.422v-.86h5.813v.86h-2.406v6.47Zm5.766,0v-7.33h2.781a6.7,6.7,0,0,1,1.109.07,2.182,2.182,0,0,1,.906.342,1.825,1.825,0,0,1,.594.706,2.342,2.342,0,0,1,.219,1,2.2,2.2,0,0,1-.594,1.579,2.9,2.9,0,0,1-2.156.646h-1.875v2.989Zm.984-3.849h1.891a2.073,2.073,0,0,0,1.344-.351,1.227,1.227,0,0,0,.375-.985,1.306,1.306,0,0,0-.219-.787,1.091,1.091,0,0,0-.609-.433,4.347,4.347,0,0,0-.906-.065h-1.875Zm7.266-3.481h.875v5.805l3.906-5.805h.938v7.33h-.859v-5.789l-3.906,5.789h-.953Zm7.906,7.33,2.813-7.33h1.063l2.969,7.33h-1.078l-.859-2.221h-3.094l-.781,2.221Zm2.094-3.011h2.5l-.75-2.03c-.234-.618-.406-1.128-.547-1.531a7.588,7.588,0,0,1-.391,1.411Zm7.688-4.319h4.578v7.33h-.984v-6.47h-2.625v3.776a13.224,13.224,0,0,1-.094,1.685,1.647,1.647,0,0,1-.453.833,1.387,1.387,0,0,1-.891.3,2.974,2.974,0,0,1-.781-.133l.172-.86a.921.921,0,0,0,.406.122.609.609,0,0,0,.516-.247,2.841,2.841,0,0,0,.156-1.168Zm7.594,0h.969v3.123h1.75a4.022,4.022,0,0,1,1.766.286,1.731,1.731,0,0,1,.781.776,2.171,2.171,0,0,1-.344,2.5,2.794,2.794,0,0,1-2.141.642h-2.781v-7.328Zm.969,6.5h1.766a1.92,1.92,0,0,0,1.422-.381,1.453,1.453,0,0,0,.328-.923,1.208,1.208,0,0,0-.25-.746,1.1,1.1,0,0,0-.625-.4,7.034,7.034,0,0,0-1.344-.089h-1.3Zm7.125.831v-7.33h.969v3.021h3.781v-3.021h.984v7.33h-.984v-3.45h-3.781v3.45Zm8.781-7.33h.969v3.123h1.766a2.963,2.963,0,0,1,2.25.636,2.159,2.159,0,0,1,.531,1.441,2.13,2.13,0,0,1-.578,1.491,2.808,2.808,0,0,1-2.141.639h-2.8Zm.969,6.5h1.766a2.318,2.318,0,0,0,1.344-.306,1.212,1.212,0,0,0,.406-.982,1.169,1.169,0,0,0-.266-.769,1.057,1.057,0,0,0-.641-.395,7.066,7.066,0,0,0-1.312-.085h-1.3Zm5.438-6.5h.969v7.33h-.969Zm3.234,7.33,2.844-3.8-2.5-3.526h1.156l1.328,1.876a6.7,6.7,0,0,1,.594.892c.156-.255.359-.529.578-.816l1.469-1.951h1.063l-2.531,3.484,2.719,3.845h-1.187l-1.844-2.614c-.109-.148-.2-.3-.312-.443a4.079,4.079,0,0,1-.344.515l-1.859,2.542Zm13.672,0v-6.47h-2.422v-.86h5.813v.86h-2.422v6.47Zm5.8,0v-7.33h5.281v.86h-4.312v2.252h4.047v.86h-4.047v2.5h4.5v.86Zm8.188,0v-7.33h2.75a6.921,6.921,0,0,1,1.125.07,2.182,2.182,0,0,1,.906.342,1.792,1.792,0,0,1,.578.706,2.132,2.132,0,0,1,.219,1,2.2,2.2,0,0,1-.594,1.579,2.787,2.787,0,0,1-2.141.646h-1.875v2.989h-.984Zm.969-3.849h1.891a2.044,2.044,0,0,0,1.344-.351,1.358,1.358,0,0,0,.406-.985,1.237,1.237,0,0,0-.266-.787,1.007,1.007,0,0,0-.594-.433,4.347,4.347,0,0,0-.906-.065h-1.875Zm7.094,3.849v-7.33h1.453l1.75,5.188q.234.725.328,1.085c.094-.265.219-.659.406-1.175l1.766-5.1h1.281v7.33h-.922v-6.131l-2.141,6.131h-.875l-2.094-6.245v6.245Zm9.953-7.33h.891v5.805l3.891-5.805h.953v7.33h-.875v-5.789l-3.891,5.789h-.969Zm8.766,7.33v-7.33h.969v3.021h3.766v-3.021h.984v7.33h-.984v-3.45H80179v3.45Zm7.922,0,2.813-7.33h1.063l2.984,7.33h-1.094l-.859-2.221h-3.094l-.781,2.221Zm2.109-3.011h2.484l-.75-2.03c-.234-.618-.406-1.128-.531-1.531a11.131,11.131,0,0,1-.391,1.411Zm7.672-4.319h4.563v7.33h-.953v-6.47h-2.641v3.776a13.224,13.224,0,0,1-.094,1.685,1.556,1.556,0,0,1-.469.833,1.287,1.287,0,0,1-.875.3,2.688,2.688,0,0,1-.766-.133l.172-.86a.868.868,0,0,0,.406.122.554.554,0,0,0,.484-.247,2.32,2.32,0,0,0,.172-1.168Zm7.25,3.762a3.965,3.965,0,0,1,.984-2.854,3.331,3.331,0,0,1,2.547-1.03,3.514,3.514,0,0,1,1.813.484,3.093,3.093,0,0,1,1.234,1.351,4.225,4.225,0,0,1,.438,1.963,4.164,4.164,0,0,1-.453,1.994,2.983,2.983,0,0,1-1.281,1.33,3.558,3.558,0,0,1-1.766.453,3.522,3.522,0,0,1-1.859-.5,3.288,3.288,0,0,1-1.234-1.363A3.9,3.9,0,0,1,80202.984,4317.236Zm.984.018a2.89,2.89,0,0,0,.734,2.082,2.345,2.345,0,0,0,1.781.761,2.378,2.378,0,0,0,1.813-.768,3.112,3.112,0,0,0,.7-2.179,3.708,3.708,0,0,0-.312-1.56,2.3,2.3,0,0,0-.875-1.032,2.4,2.4,0,0,0-1.3-.366,2.484,2.484,0,0,0-1.781.706A3.192,3.192,0,0,0,80203.969,4317.254Zm8.625,3.549v-7.328h2.75a3.473,3.473,0,0,1,1.344.221,1.806,1.806,0,0,1,.781.685,1.715,1.715,0,0,1,.3.968,1.788,1.788,0,0,1-.25.883,1.729,1.729,0,0,1-.766.67,1.9,1.9,0,0,1,1.016.665,1.711,1.711,0,0,1,.359,1.109,2.006,2.006,0,0,1-.234.958,1.748,1.748,0,0,1-.531.684,2.129,2.129,0,0,1-.8.361,4.753,4.753,0,0,1-1.187.123Zm.953-4.249h1.594a3.7,3.7,0,0,0,.938-.084,1.046,1.046,0,0,0,.547-.367,1.065,1.065,0,0,0,.2-.642,1.247,1.247,0,0,0-.187-.642.954.954,0,0,0-.5-.383,4.187,4.187,0,0,0-1.109-.1h-1.484Zm0,3.389h1.828a3.928,3.928,0,0,0,.672-.037,1.536,1.536,0,0,0,.563-.2,1.1,1.1,0,0,0,.359-.41,1.164,1.164,0,0,0,.172-.619,1.355,1.355,0,0,0-.219-.715,1.127,1.127,0,0,0-.594-.426,3.569,3.569,0,0,0-1.078-.123h-1.7Z" transform="translate(-80012.305 -4260.952)" fill="#5b5b5b"/>
</svg>
