<svg xmlns="http://www.w3.org/2000/svg" width="131.902" height="65.23" viewBox="0 0 131.902 65.23">
  <path id="Контур_3406" data-name="Контур 3406" d="M22063.055,65.211h66.605c.268,0,3.867-3.754,4.131-4.014,5.811-5.81,60.814-60.681,61.166-61.208h-131.9V65.211Zm85.047-4.522V59.181h1.006c.508,0,1.053.109,1.053.715,0,.757-.555.794-1.174.794h-.885Zm0,.628h.848l1.277,2.108h.836l-1.4-2.143a1.265,1.265,0,0,0,1.273-1.343c0-.954-.574-1.382-1.723-1.382h-1.85v4.868h.734Zm.9,3.9a4.226,4.226,0,1,0-4.295-4.237A4.218,4.218,0,0,0,22149,65.22Zm-3.443-4.237a3.43,3.43,0,1,1,3.443,3.535A3.428,3.428,0,0,1,22145.555,60.983Zm-3.436-29.754h-2.861V20.758h2.861c3.816,0,6.861,1.268,6.861,5.166,0,4.034-3.045,5.3-6.861,5.3Zm-30.793,7.465a11.876,11.876,0,0,1-4.166-.728l4.119-12.993h.08l4.047,13.03a12.248,12.248,0,0,1-4.08.691Zm30.031-26.435-12.994-.008V43.146l-11.348-30.894h-11.256l-9.7,25.836c-1.029-6.515-7.768-8.764-13.07-10.451-3.5-1.124-7.219-2.777-7.184-4.6.029-1.5,1.994-2.895,5.887-2.684a21.258,21.258,0,0,1,9.51,2.562l4.51-7.86A35.123,35.123,0,0,0,22081,11.566h-.023c-5.533,0-10.139,1.792-13,4.746a10.938,10.938,0,0,0-3.107,7.579,10.166,10.166,0,0,0,4.457,9.071,30.382,30.382,0,0,0,8.836,4.041c3.609,1.118,6.555,2.089,6.518,4.162a3.055,3.055,0,0,1-.852,2.029c-.9.928-2.283,1.277-4.191,1.311-3.682.078-6.41-.5-10.76-3.068l-4.008,7.971a29.994,29.994,0,0,0,14.707,3.913l.674-.009a17.733,17.733,0,0,0,11.18-3.749c.17-.133.322-.27.477-.409l-1.3,3.48h11.8l1.977-6.025a21.585,21.585,0,0,0,6.941,1.1,21.842,21.842,0,0,0,6.771-1.042l1.91,5.965h19.246V40.162h4.2c10.15,0,16.148-5.169,16.148-13.828,0-9.647-5.83-14.074-18.244-14.074Z" transform="translate(-22063.055 0.01)" fill="#00b1eb" fill-rule="evenodd"/>
</svg>
