<svg xmlns="http://www.w3.org/2000/svg" width="120" height="110" viewBox="0 0 120 110">
  <g id="Сгруппировать_431" data-name="Сгруппировать 431" transform="translate(-205 -598)">
    <g id="Сгруппировать_7" data-name="Сгруппировать 7" transform="translate(-430 -885)">
      <rect id="Прямоугольник_89" data-name="Прямоугольник 89" width="10" height="10" transform="translate(745 1523) rotate(90)" fill="#ff414a"/>
      <rect id="Прямоугольник_84" data-name="Прямоугольник 84" width="10" height="10" transform="translate(705 1593) rotate(180)" fill="#ff414a"/>
      <rect id="Прямоугольник_85" data-name="Прямоугольник 85" width="10" height="10" transform="translate(735 1513) rotate(90)" fill="#ff414a"/>
      <rect id="Прямоугольник_81" data-name="Прямоугольник 81" width="10" height="10" transform="translate(715 1583) rotate(180)" fill="#ff414a"/>
      <rect id="Прямоугольник_86" data-name="Прямоугольник 86" width="10" height="10" transform="translate(725 1503) rotate(90)" fill="#ff414a"/>
      <rect id="Прямоугольник_87" data-name="Прямоугольник 87" width="10" height="10" transform="translate(725 1573) rotate(180)" fill="#ff414a"/>
      <rect id="Прямоугольник_82" data-name="Прямоугольник 82" width="10" height="10" transform="translate(715 1493) rotate(90)" fill="#ff414a"/>
      <rect id="Прямоугольник_88" data-name="Прямоугольник 88" width="10" height="10" transform="translate(735 1563) rotate(180)" fill="#ff414a"/>
      <rect id="Прямоугольник_83" data-name="Прямоугольник 83" width="10" height="10" transform="translate(705 1483) rotate(90)" fill="#ff414a"/>
      <rect id="Прямоугольник_90" data-name="Прямоугольник 90" width="10" height="10" transform="translate(745 1553) rotate(180)" fill="#ff414a"/>
      <rect id="Прямоугольник_91" data-name="Прямоугольник 91" width="10" height="10" transform="translate(755 1543) rotate(180)" fill="#ff414a"/>
    </g>
    <g id="Сгруппировать_8" data-name="Сгруппировать 8" transform="translate(-450 -885)">
      <rect id="Прямоугольник_89-2" data-name="Прямоугольник 89" width="10" height="10" transform="translate(745 1523) rotate(90)" fill="#ff414a"/>
      <rect id="Прямоугольник_84-2" data-name="Прямоугольник 84" width="10" height="10" transform="translate(705 1593) rotate(180)" fill="#ff414a"/>
      <rect id="Прямоугольник_85-2" data-name="Прямоугольник 85" width="10" height="10" transform="translate(735 1513) rotate(90)" fill="#ff414a"/>
      <rect id="Прямоугольник_81-2" data-name="Прямоугольник 81" width="10" height="10" transform="translate(715 1583) rotate(180)" fill="#ff414a"/>
      <rect id="Прямоугольник_86-2" data-name="Прямоугольник 86" width="10" height="10" transform="translate(725 1503) rotate(90)" fill="#ff414a"/>
      <rect id="Прямоугольник_87-2" data-name="Прямоугольник 87" width="10" height="10" transform="translate(725 1573) rotate(180)" fill="#ff414a"/>
      <rect id="Прямоугольник_82-2" data-name="Прямоугольник 82" width="10" height="10" transform="translate(715 1493) rotate(90)" fill="#ff414a"/>
      <rect id="Прямоугольник_88-2" data-name="Прямоугольник 88" width="10" height="10" transform="translate(735 1563) rotate(180)" fill="#ff414a"/>
      <rect id="Прямоугольник_83-2" data-name="Прямоугольник 83" width="10" height="10" transform="translate(705 1483) rotate(90)" fill="#ff414a"/>
      <rect id="Прямоугольник_90-2" data-name="Прямоугольник 90" width="10" height="10" transform="translate(745 1553) rotate(180)" fill="#ff414a"/>
      <rect id="Прямоугольник_91-2" data-name="Прямоугольник 91" width="10" height="10" transform="translate(755 1543) rotate(180)" fill="#ff414a"/>
    </g>
    <g id="Сгруппировать_6" data-name="Сгруппировать 6" transform="translate(-470 -885)">
      <rect id="Прямоугольник_89-3" data-name="Прямоугольник 89" width="10" height="10" transform="translate(745 1523) rotate(90)" fill="#ff414a"/>
      <rect id="Прямоугольник_84-3" data-name="Прямоугольник 84" width="10" height="10" transform="translate(705 1593) rotate(180)" fill="#ff414a"/>
      <rect id="Прямоугольник_85-3" data-name="Прямоугольник 85" width="10" height="10" transform="translate(735 1513) rotate(90)" fill="#ff414a"/>
      <rect id="Прямоугольник_81-3" data-name="Прямоугольник 81" width="10" height="10" transform="translate(715 1583) rotate(180)" fill="#ff414a"/>
      <rect id="Прямоугольник_86-3" data-name="Прямоугольник 86" width="10" height="10" transform="translate(725 1503) rotate(90)" fill="#ff414a"/>
      <rect id="Прямоугольник_87-3" data-name="Прямоугольник 87" width="10" height="10" transform="translate(725 1573) rotate(180)" fill="#ff414a"/>
      <rect id="Прямоугольник_82-3" data-name="Прямоугольник 82" width="10" height="10" transform="translate(715 1493) rotate(90)" fill="#ff414a"/>
      <rect id="Прямоугольник_88-3" data-name="Прямоугольник 88" width="10" height="10" transform="translate(735 1563) rotate(180)" fill="#ff414a"/>
      <rect id="Прямоугольник_83-3" data-name="Прямоугольник 83" width="10" height="10" transform="translate(705 1483) rotate(90)" fill="#ff414a"/>
      <rect id="Прямоугольник_90-3" data-name="Прямоугольник 90" width="10" height="10" transform="translate(745 1553) rotate(180)" fill="#ff414a"/>
      <rect id="Прямоугольник_91-3" data-name="Прямоугольник 91" width="10" height="10" transform="translate(755 1543) rotate(180)" fill="#ff414a"/>
    </g>
    <g id="Сгруппировать_5" data-name="Сгруппировать 5" transform="translate(-490 -885)">
      <rect id="Прямоугольник_89-4" data-name="Прямоугольник 89" width="10" height="10" transform="translate(745 1523) rotate(90)" fill="#ff414a"/>
      <rect id="Прямоугольник_84-4" data-name="Прямоугольник 84" width="10" height="10" transform="translate(705 1593) rotate(180)" fill="#ff414a"/>
      <rect id="Прямоугольник_85-4" data-name="Прямоугольник 85" width="10" height="10" transform="translate(735 1513) rotate(90)" fill="#ff414a"/>
      <rect id="Прямоугольник_81-4" data-name="Прямоугольник 81" width="10" height="10" transform="translate(715 1583) rotate(180)" fill="#ff414a"/>
      <rect id="Прямоугольник_86-4" data-name="Прямоугольник 86" width="10" height="10" transform="translate(725 1503) rotate(90)" fill="#ff414a"/>
      <rect id="Прямоугольник_87-4" data-name="Прямоугольник 87" width="10" height="10" transform="translate(725 1573) rotate(180)" fill="#ff414a"/>
      <rect id="Прямоугольник_82-4" data-name="Прямоугольник 82" width="10" height="10" transform="translate(715 1493) rotate(90)" fill="#ff414a"/>
      <rect id="Прямоугольник_88-4" data-name="Прямоугольник 88" width="10" height="10" transform="translate(735 1563) rotate(180)" fill="#ff414a"/>
      <rect id="Прямоугольник_83-4" data-name="Прямоугольник 83" width="10" height="10" transform="translate(705 1483) rotate(90)" fill="#ff414a"/>
      <rect id="Прямоугольник_90-4" data-name="Прямоугольник 90" width="10" height="10" transform="translate(745 1553) rotate(180)" fill="#ff414a"/>
      <rect id="Прямоугольник_91-4" data-name="Прямоугольник 91" width="10" height="10" transform="translate(755 1543) rotate(180)" fill="#ff414a"/>
    </g>
  </g>
</svg>
