<svg id="Слой_x0020_1" xmlns="http://www.w3.org/2000/svg" width="240.999" height="30.476" viewBox="0 0 240.999 30.476">
  <path id="Контур_3131" data-name="Контур 3131" d="M1340.4,171.375h-1.778c-.288,0-.576-.017-.863,0a2.281,2.281,0,0,1-1.85-.793q-1.752-1.8-3.5-3.618c-.081-.084-.15-.179-.267-.321h3.748c.006-.171.015-.309.015-.447q0-4.6,0-9.2,0-2.283,0-4.566c0-.419.014-.838.021-1.257,0-.084,0-.168,0-.252-.023-.378-.106-.464-.478-.471-.336-.006-.671,0-1.007,0l-6.04.013c-.084,0-.168,0-.251,0-.226.021-.294.075-.322.306-.05.428-.084.858-.125,1.288a37.1,37.1,0,0,1-1.1,6.256,24.333,24.333,0,0,1-2.632,6.389,15.205,15.205,0,0,1-5.562,5.495,17.009,17.009,0,0,1-8.58,1.975,12.9,12.9,0,0,1-5.754-1.628,13.076,13.076,0,0,1-4.482-3.86,14.794,14.794,0,0,1-1.9-12.5,13.089,13.089,0,0,1,6.389-7.676,12.909,12.909,0,0,1,4.965-1.577,12.152,12.152,0,0,1,5.174.579c.7.238,1.377.55,2.061.835a3.486,3.486,0,0,1,.386.224l-.668.932q-.881,1.225-1.762,2.451a.641.641,0,0,1-.856.321c-.546-.133-1.086-.307-1.64-.4a8.018,8.018,0,0,0-7.729,2.707,8.974,8.974,0,0,0,.087,12.058,8.12,8.12,0,0,0,4.5,2.516,10.671,10.671,0,0,0,7.939-1.394,10.862,10.862,0,0,0,3.894-4.422,22.907,22.907,0,0,0,2.15-6.638,46.6,46.6,0,0,0,.665-6.86c.016-.67.04-1.339.06-2.006.266-.081,16.23-.118,17.063-.042.076.248.106,25,.023,25.579Z" transform="translate(-1276.965 -142.625)" fill="#f1f3f5"/>
  <path id="Контур_3132" data-name="Контур 3132" d="M4.648,212.9v10.952A44.3,44.3,0,0,1,0,223.873V198.415H4.606v10.829c.621.23.877.162,1.244-.342q1.914-2.63,3.817-5.268c1.145-1.582,2.293-3.162,3.427-4.752a1.247,1.247,0,0,1,1.122-.569c1.606.018,3.212.007,4.818.007h.35a.365.365,0,0,1,.025.044c0,.01.009.024,0,.032a.672.672,0,0,1-.057.091c-.044.057-.091.111-.137.167L9.938,209.822a.328.328,0,0,0-.039.06.377.377,0,0,0-.009.078c.155.048.318.106.485.149a8.161,8.161,0,0,1,3.163,1.564,8.266,8.266,0,0,1,2.451,3.364c.741,1.831,1.439,3.679,2.157,5.52.374.959.753,1.917,1.127,2.876.064.165.119.334.189.535-.134.01-.235.023-.337.023q-2.085,0-4.171,0c-.5,0-.642-.1-.824-.578-.7-1.823-1.381-3.651-2.093-5.468-.253-.645-.559-1.271-.862-1.9a4.916,4.916,0,0,0-3.84-2.863c-.873-.138-1.759-.19-2.688-.286Z" transform="translate(0 -195.242)" fill="#f1f3f5"/>
  <path id="Контур_3133" data-name="Контур 3133" d="M8192.273,207.542c.078-.338.074-5.521-.01-5.847-.381,0-.773-.006-1.165,0a.32.32,0,0,0-.324.28c-.018.082-.031.165-.041.248a17.884,17.884,0,0,1-1.309,4.938c-.048.116-.076.239-.121.378h2.969Zm-4.26,1.859v2.461h-1.758a40.608,40.608,0,0,1-.018-4.261,1.711,1.711,0,0,1,.267-.012.723.723,0,0,0,.737-.41,5.091,5.091,0,0,0,.242-.48,17.2,17.2,0,0,0,1.509-6.175c0-.06,0-.12.01-.179.036-.338.145-.445.483-.444q2.354.007,4.709.022c.08,0,.162.018.289.033.006,2.529,0,5.05,0,7.612h1.311v4.318c-.189,0-.375.006-.561.007-.289,0-.576,0-.863,0-.334-.007-.42-.092-.426-.435-.008-.407,0-.815,0-1.222v-.814C8193.67,209.322,8188.448,209.3,8188.013,209.4Z" transform="translate(-8059.433 -196.804)" fill="#f1f3f5"/>
  <path id="Контур_3134" data-name="Контур 3134" d="M4938.024,88.43h2.048v29.1l-1.027,0h-1C4937.969,117.263,4937.947,88.911,4938.024,88.43Z" transform="translate(-4861.515 -87.061)" fill="#f1f3f5"/>
  <path id="Контур_3135" data-name="Контур 3135" d="M10866.516,208.712h3.818c.013-.174.039-.348.039-.522q0-3.218,0-6.435c0-.593,0-.6.6-.6.385,0,.767,0,1.15,0,.118,0,.234.01.4.018v7.554h1.274v4.364H10872v-2.536h-7.568v-9.348h2.071c0,.137.012.274.012.412q0,3.326,0,6.651v.438Z" transform="translate(-10696.2 -198.044)" fill="#f1f3f5"/>
  <path id="Контур_3136" data-name="Контур 3136" d="M12207.5,1251.8v-9.367a9.2,9.2,0,0,1,1.973-.03v6.226l.08.029c.068-.089.141-.173.2-.266,1.215-1.866,2.438-3.73,3.639-5.6a.8.8,0,0,1,.787-.433c.584.028,1.17.007,1.779.007v9.41h-1.98c-.016-1.058-.006-2.119-.008-3.18s0-2.13-.055-3.228a2.228,2.228,0,0,0-.18.225q-1.758,2.673-3.51,5.347c-.145.22-.281.447-.441.656a.473.473,0,0,1-.277.2c-.656.017-1.312.009-2.008.009Z" transform="translate(-12018.474 -1223.117)" fill="#f1f3f5"/>
  <path id="Контур_3137" data-name="Контур 3137" d="M13953.049,1242.361v6.227l.063.025c.068-.089.141-.174.205-.267,1.213-1.867,2.432-3.732,3.635-5.606a.762.762,0,0,1,.758-.42c.475.029.957.006,1.436.008.117,0,.232.011.367.018v9.407l-.951.006h-1.021c0-.444-.006-.87-.006-1.3s0-.863,0-1.294v-3.829l-.082-.03c-.074.1-.148.2-.217.3-1.244,1.905-2.5,3.806-3.723,5.721a.905.905,0,0,1-.922.465c-.369-.027-.742-.006-1.111-.007h-.4v-9.433h1.969Z" transform="translate(-13735.057 -1223.082)" fill="#f1f3f5"/>
  <path id="Контур_3138" data-name="Контур 3138" d="M8913.508,203.611c-.086.124-.175.246-.256.372-1.238,1.894-2.48,3.787-3.709,5.687a.723.723,0,0,1-.7.387c-.549-.022-1.1-.006-1.641-.006-.084-.281-.108-8.783-.032-9.335h1.953v6.156c.171,0,.206-.13.265-.22q1.23-1.879,2.45-3.762c.393-.6.79-1.2,1.166-1.813a.806.806,0,0,1,.8-.427c.441.023.887.006,1.33.007h.342c.086.293.107,8.874.028,9.344h-1.921v-6.359l-.074-.03Z" transform="translate(-8769.202 -197.541)" fill="#f1f3f5"/>
  <path id="Контур_3139" data-name="Контур 3139" d="M15024.873,200.426v9.285a7.977,7.977,0,0,1-1.92.032,10.358,10.358,0,0,1-.023-1.233c-.008-.431,0-.863,0-1.294v-3.9c-.105.122-.168.178-.215.247l-3.779,5.77a1.073,1.073,0,0,1-.186.264.713.713,0,0,1-.365.191c-.609.019-1.219.009-1.854.009v-9.344h1.939v6.166l.074.023c.072-.1.15-.2.219-.3,1.176-1.806,2.361-3.608,3.52-5.426a.914.914,0,0,1,.928-.515c.428.035.861.006,1.295.009.115,0,.232.012.369.02Z" transform="translate(-14784.008 -197.29)" fill="#f1f3f5"/>
  <path id="Контур_3140" data-name="Контур 3140" d="M11575.2,201.526h1.926V207.7c.189-.035.23-.172.3-.271q1.57-2.406,3.137-4.816.272-.421.547-.844a.526.526,0,0,1,.43-.288c.658-.007,1.314,0,1.963,0,.082.3.115,8.5.045,9.318a8.4,8.4,0,0,1-1.947.009v-6.33l-.066-.024c-.059.079-.125.155-.18.238-1.256,1.911-2.518,3.82-3.762,5.738a.822.822,0,0,1-.787.443c-.523-.021-1.053-.005-1.6-.005Z" transform="translate(-11395.967 -198.358)" fill="#f1f3f5"/>
  <path id="Контур_3141" data-name="Контур 3141" d="M11067.262,1237a4.083,4.083,0,0,0-.418-1.836,2.133,2.133,0,0,0-.708-.843,2.213,2.213,0,0,0-3.3.99,4.1,4.1,0,0,0,.051,3.479,2.22,2.22,0,0,0,4.015-.083A4.115,4.115,0,0,0,11067.262,1237Zm2.254-.211a5.617,5.617,0,0,1-.868,3.2,4.247,4.247,0,0,1-2.961,1.841,5.114,5.114,0,0,1-2.312-.14,4.09,4.09,0,0,1-2.885-2.808,5.879,5.879,0,0,1,.092-3.912,4.406,4.406,0,0,1,4.169-2.875,4.569,4.569,0,0,1,2.8.722,4.384,4.384,0,0,1,1.842,2.93c.073.4.095.807.12,1.046Z" transform="translate(-10888.939 -1213.005)" fill="#f1f3f5"/>
  <path id="Контур_3142" data-name="Контур 3142" d="M9528.035,1240.03a2.125,2.125,0,0,0,2.264-1.474c.039-.112.074-.227.109-.341a3.3,3.3,0,0,0,.1-2.038c-.076-.238-.117-.488-.2-.726a2.01,2.01,0,0,0-1.971-1.495,2.055,2.055,0,0,0-2.07,1.2,3.93,3.93,0,0,0-.02,3.657,2,2,0,0,0,1.789,1.213Zm-4.494-2.937a5.928,5.928,0,0,1,.617-2.6,4.35,4.35,0,0,1,3.975-2.391,4.915,4.915,0,0,1,2.107.356,4.072,4.072,0,0,1,2.271,2.462,5.747,5.747,0,0,1-.148,4.41,4.2,4.2,0,0,1-3.357,2.508,4.917,4.917,0,0,1-2.414-.174,4.248,4.248,0,0,1-2.912-3.394C9523.6,1237.882,9523.584,1237.484,9523.541,1237.093Z" transform="translate(-9376.074 -1213.017)" fill="#f1f3f5"/>
  <path id="Контур_3143" data-name="Контур 3143" d="M7132.537,1246.914c.518-.064.993-.1,1.461-.186a1,1,0,0,0,.83-1.051.891.891,0,0,0-.838-.947c-.4-.062-.807-.081-1.212-.113a1.4,1.4,0,0,0-.241.023v2.273Zm0,4.029a8.836,8.836,0,0,0,1.862-.158,1.1,1.1,0,0,0,.793-1.148,1.068,1.068,0,0,0-.832-1.078,6.153,6.153,0,0,0-1.823-.047v2.43Zm-2.117,1.52v-9.383a2.341,2.341,0,0,1,.262-.03c1.186.006,2.372.008,3.559.026a4.184,4.184,0,0,1,1.605.349,1.975,1.975,0,0,1,.436,3.448c-.244.19-.517.343-.811.535.087.042.153.076.221.106a.636.636,0,0,0,.068.019,2.133,2.133,0,0,1,1.692,2.03,2.474,2.474,0,0,1-1.34,2.474,3.5,3.5,0,0,1-1.614.444c-1.306.015-2.611.008-3.916.009A1.065,1.065,0,0,1,7130.421,1252.463Z" transform="translate(-7020.011 -1223.802)" fill="#f1f3f5"/>
  <path id="Контур_3144" data-name="Контур 3144" d="M6431.586,1240.1a2.074,2.074,0,0,0,1.962-1.319,12.723,12.723,0,0,0,.449-1.586.449.449,0,0,0,0-.213c-.125-.511-.235-1.027-.387-1.53a2,2,0,0,0-.827-1.1,2.2,2.2,0,0,0-3.22.934,4,4,0,0,0-.067,3.414A2.215,2.215,0,0,0,6431.586,1240.1Zm.137-7.955a4.564,4.564,0,0,1,1.963.407,4.069,4.069,0,0,1,2.153,2.391,5.8,5.8,0,0,1-.037,4.181,4.079,4.079,0,0,1-3.469,2.765,4.725,4.725,0,0,1-4.6-1.849,4.422,4.422,0,0,1-.8-2.349,5.507,5.507,0,0,1,.566-3.169,4.42,4.42,0,0,1,4.225-2.377Z" transform="translate(-6327.388 -1213.065)" fill="#f1f3f5"/>
  <path id="Контур_3145" data-name="Контур 3145" d="M7056.746,194.761a3.911,3.911,0,0,0,.414,1.789,2.055,2.055,0,0,0,1.218,1.1,2.2,2.2,0,0,0,2.9-1.53,4.438,4.438,0,0,0,.124-2.195,4.374,4.374,0,0,0-.26-.891,2.042,2.042,0,0,0-1.972-1.3,2.121,2.121,0,0,0-2.03,1.284,3.9,3.9,0,0,0-.395,1.745Zm-2.245.037a5.169,5.169,0,0,1,.911-3.052,4.211,4.211,0,0,1,3.018-1.807,5.029,5.029,0,0,1,2.135.115,4.178,4.178,0,0,1,3.1,3.586,6.475,6.475,0,0,1-.205,2.914,4.525,4.525,0,0,1-4.189,3.1,5.405,5.405,0,0,1-2.455-.583,4.018,4.018,0,0,1-2.2-3.136C7054.552,195.563,7054.537,195.178,7054.5,194.8Z" transform="translate(-6945.267 -186.938)" fill="#f1f3f5"/>
  <path id="Контур_3146" data-name="Контур 3146" d="M12223.519,193.437a4.087,4.087,0,0,0-.443-1.892,2.11,2.11,0,0,0-2.457-1.087,2.336,2.336,0,0,0-1.641,1.663,4.777,4.777,0,0,0-.2,1.634,3.075,3.075,0,0,0,.705,1.922,2.191,2.191,0,0,0,3.635-.454A4.016,4.016,0,0,0,12223.519,193.437Zm-2.377,4.846a4.3,4.3,0,0,1-4.15-2.484,5.039,5.039,0,0,1-.43-2.805,6.377,6.377,0,0,1,.258-1.371,4.3,4.3,0,0,1,3.486-3,4.768,4.768,0,0,1,2.348.114,3.942,3.942,0,0,1,2.736,2.581,5.712,5.712,0,0,1-.1,4.348,4.174,4.174,0,0,1-3.713,2.6c-.168.012-.334.021-.437.028Z" transform="translate(-12027.36 -185.603)" fill="#f1f3f5"/>
  <path id="Контур_3147" data-name="Контур 3147" d="M6403.414,192.217a1.982,1.982,0,0,0-1.86,1.006,3.825,3.825,0,0,0-.061,3.936,2.006,2.006,0,0,0,2.065,1.081,1.968,1.968,0,0,0,1.853-1.358,14.871,14.871,0,0,0,.376-1.53.4.4,0,0,0,0-.178,15.59,15.59,0,0,0-.357-1.535,1.955,1.955,0,0,0-2.013-1.423Zm4.594,2.972a5.255,5.255,0,0,1-1.084,3.291,4.141,4.141,0,0,1-3,1.575,5.143,5.143,0,0,1-2.027-.17,4.236,4.236,0,0,1-3.084-3.689,6.049,6.049,0,0,1,.155-2.5,4.361,4.361,0,0,1,3.832-3.3,4.885,4.885,0,0,1,2.768.413,4.216,4.216,0,0,1,2.287,3.092c.086.419.1.854.149,1.281Z" transform="translate(-6299.67 -187.415)" fill="#f1f3f5"/>
  <path id="Контур_3148" data-name="Контур 3148" d="M8903.648,1254.385h-2.109v-9.4h8.057c.072.25.094,8.858.021,9.378h-2.078c-.02-2.5.006-4.993-.014-7.509h-3.877Z" transform="translate(-8763.704 -1225.712)" fill="#f1f3f5"/>
  <path id="Контур_3149" data-name="Контур 3149" d="M13576.7,203.55h2.051c.02.616.008,1.222.01,1.827v1.785a31.961,31.961,0,0,0,3.859.02v-3.616h2.105v9.311h-2.094V209.2a28.376,28.376,0,0,0-3.838-.042c-.033,1.218.008,2.445-.021,3.7h-2.072Z" transform="translate(-13366.475 -200.398)" fill="#f1f3f5"/>
  <path id="Контур_3150" data-name="Контур 3150" d="M12910.551,203.99h2.094v3.659c.2.014.367.034.533.035.957,0,1.916,0,2.877.008.379,0,.461-.069.461-.459l-.012-2.84c0-.128,0-.256,0-.4h2.041c.074.265.086,8.917.012,9.307h-2.035v-3.715h-3.873v3.727h-2.076C12910.5,213.055,12910.475,204.486,12910.551,203.99Z" transform="translate(-12710.592 -200.831)" fill="#f1f3f5"/>
  <path id="Контур_3151" data-name="Контур 3151" d="M9597.506,211.414v-3.723h-3.859v3.715H9591.6c-.082-.262-.1-8.874-.02-9.307h2.066v3.648h3.859v-3.6a8.855,8.855,0,0,1,2.051-.045c.068.255.092,8.807.021,9.309Z" transform="translate(-9443.012 -198.94)" fill="#f1f3f5"/>
  <path id="Контур_3152" data-name="Контур 3152" d="M10405.4,1250.729c.27,0,.484-.005.7,0a.6.6,0,0,0,.619-.4,5.736,5.736,0,0,0,.246-.711,50.759,50.759,0,0,0,1.17-5.841c.021-.166.045-.332.076-.5.051-.257.121-.32.381-.338.117-.008.236-.008.357-.008h5.018v9.411h-2.1v-6.923c0-.1,0-.192,0-.287-.012-.347-.078-.407-.436-.406-.336,0-.67,0-1.006,0-.367,0-.432.054-.5.416-.17.954-.336,1.91-.512,2.863-.131.706-.275,1.41-.418,2.114a4.4,4.4,0,0,1-.533,1.365,2.4,2.4,0,0,1-2.771.959c-.254-.1-.295-.147-.3-.421,0-.429,0-.857,0-1.3Z" transform="translate(-10244.282 -1223.692)" fill="#f1f3f5"/>
  <path id="Контур_3153" data-name="Контур 3153" d="M14638.243,1242.661h2.064v4.2l.064.018c.041-.052.086-.1.123-.154.818-1.251,1.643-2.5,2.457-3.758a.66.66,0,0,1,.623-.336c.693.014,1.389,0,2.158,0-.1.162-.172.28-.254.389q-1.312,1.8-2.631,3.6c-.035.048-.072.1-.107.144-.256.356-.256.415-.006.761q1.433,1.979,2.867,3.958c.131.181.254.368.4.588a2.326,2.326,0,0,1-.254.032c-.719-.007-1.439-.022-2.156-.021a.586.586,0,0,1-.508-.339q-1.017-1.545-2.039-3.087c-.211-.318-.424-.635-.629-.947a.319.319,0,0,0-.057.021c-.012.006-.023.014-.023.022a.876.876,0,0,0-.016.142q-.006,2.049-.014,4.1c0,.01-.012.02-.033.052h-2.018C14638.187,1251.788,14638.167,1243.121,14638.243,1242.661Z" transform="translate(-14411.532 -1223.385)" fill="#f1f3f5"/>
  <path id="Контур_3154" data-name="Контур 3154" d="M10194.376,206.732a10.814,10.814,0,0,0,2.271-.022l-1.09-3.493-.079.006C10195.105,204.389,10194.729,205.553,10194.376,206.732Zm5.779,3.8c-.729,0-1.4.006-2.067,0-.213,0-.3-.175-.357-.352-.111-.341-.219-.684-.329-1.026-.037-.114-.074-.227-.115-.339-.113-.3-.182-.348-.5-.35-.754,0-1.51,0-2.264,0h-.63c-.118.357-.23.695-.34,1.034-.084.262-.163.525-.245.788-.046.145-.115.263-.295.262-.658,0-1.317,0-1.976-.009-.02,0-.04-.021-.09-.048.037-.128.07-.265.117-.4q1.537-4.235,3.073-8.469c.161-.439.2-.467.682-.469s.98,0,1.473,0,.566.049.731.509q1.506,4.225,3.011,8.452c.043.122.075.248.126.419Z" transform="translate(-10033.142 -198.031)" fill="#f1f3f5"/>
  <path id="Контур_3155" data-name="Контур 3155" d="M5909.374,200.35h2.058v4.129l.068.024c.062-.078.13-.151.185-.234.751-1.141,1.513-2.275,2.244-3.428a1.015,1.015,0,0,1,1.034-.542c.477.038.959.009,1.438.009h.429c-.119.183-.19.3-.271.415q-1.3,1.785-2.61,3.568c-.028.039-.058.077-.085.116-.253.347-.255.415,0,.761q1.15,1.587,2.3,3.171c.308.425.612.853.949,1.324a2.861,2.861,0,0,1-.31.038c-.684,0-1.367-.016-2.049-.006a.532.532,0,0,1-.5-.269c-.494-.75-1-1.493-1.5-2.239q-.529-.791-1.059-1.583c-.053-.078-.108-.153-.2-.276a3.31,3.31,0,0,0-.049.883c-.01.287,0,.575,0,.863v2.6H5909.4C5909.327,209.419,5909.3,200.914,5909.374,200.35Z" transform="translate(-5817.829 -197.192)" fill="#f1f3f5"/>
  <path id="Контур_3156" data-name="Контур 3156" d="M7754.955,207.234c.5-.037.951-.04,1.4-.114a1.164,1.164,0,0,0,.989-.88,1.512,1.512,0,0,0-.283-1.515.742.742,0,0,0-.162-.14,2.845,2.845,0,0,0-1.939-.26v2.909Zm-2.114-4.536c.1-.01.172-.024.242-.024,1.208,0,2.417-.011,3.624.021a4.573,4.573,0,0,1,1.265.223,2.262,2.262,0,0,1,1.5,1.487,3.452,3.452,0,0,1-.066,2.526,2.8,2.8,0,0,1-2.239,1.708c-.6.1-1.213.118-1.82.168-.118.01-.236,0-.371,0a4.6,4.6,0,0,0-.045,1.049c-.01.359,0,.718,0,1.077V212h-2.084v-9.3Z" transform="translate(-7632.793 -199.536)" fill="#f1f3f5"/>
  <path id="Контур_3157" data-name="Контур 3157" d="M14238.213,211.5a4.9,4.9,0,0,0,1.645-.092,1.348,1.348,0,0,0,.551-2.123,1.008,1.008,0,0,0-.385-.255,4.2,4.2,0,0,0-1.811-.073Zm-2.111-7.713h2.063v3.43c.133.007.225.018.318.016a10.877,10.877,0,0,1,2.535.209,2.217,2.217,0,0,1,1.9,2.164,4.857,4.857,0,0,1-.055,1.248,2.76,2.76,0,0,1-2.324,2.2,7.067,7.067,0,0,1-1.105.083c-1.02.011-2.037,0-3.057,0-.08,0-.166-.015-.242-.023-.08-.261-.111-8.654-.035-9.331Z" transform="translate(-14015.621 -200.634)" fill="#f1f3f5"/>
  <path id="Контур_3158" data-name="Контур 3158" d="M7691.66,1250.508h-2.917a10.1,10.1,0,0,0-.016,2.155h3.406v1.7h-5.584v-9.375h5.368v1.711c-1.064.018-2.124,0-3.172.011a9.4,9.4,0,0,0-.031,2.052h2.91A6.139,6.139,0,0,1,7691.66,1250.508Z" transform="translate(-7567.529 -1225.712)" fill="#f1f3f5"/>
  <path id="Контур_3159" data-name="Контур 3159" d="M15209.279,1251.887h-5.58v-9.335c.252-.076,4.488-.109,5.33-.04a6.2,6.2,0,0,1,.025,1.7h-3.189v2.084h2.979v1.738c-.986.021-1.973,0-2.994.014-.037.715-.018,1.4-.012,2.132h3.441Z" transform="translate(-14968.28 -1223.235)" fill="#f1f3f5"/>
  <path id="Контур_3160" data-name="Контур 3160" d="M12860.955,1234.12l-.887-.253a4.034,4.034,0,0,0-2.092-.118,2.646,2.646,0,0,0-2.064,2.11,3.8,3.8,0,0,0,.072,1.989,2.587,2.587,0,0,0,2.7,1.888,4.871,4.871,0,0,0,1.781-.377l.457-.191a2.133,2.133,0,0,1,.035.3c0,.455-.018.91-.018,1.365a.343.343,0,0,1-.266.372,6.381,6.381,0,0,1-4.766-.1,3.47,3.47,0,0,1-1.793-1.736,5.507,5.507,0,0,1,.205-5.336,4.294,4.294,0,0,1,3.029-2.107,7.153,7.153,0,0,1,3.2.1c.367.095.406.148.406.519,0,.5,0,1,0,1.573Z" transform="translate(-12654.493 -1212.719)" fill="#f1f3f5"/>
  <path id="Контур_3161" data-name="Контур 3161" d="M5908.777,1240.093c0,.6,0,1.122,0,1.647,0,.218-.173.28-.334.316a16.492,16.492,0,0,1-1.756.358,5.336,5.336,0,0,1-2.937-.489,3.789,3.789,0,0,1-2.158-2.707,6.2,6.2,0,0,1,.014-3.128,4.7,4.7,0,0,1,4.274-3.437,8.2,8.2,0,0,1,2.32.15c.116.026.234.055.347.092a.32.32,0,0,1,.243.319c0,.561,0,1.123,0,1.732-.308-.09-.579-.17-.851-.247a4.228,4.228,0,0,0-2.2-.127,2.461,2.461,0,0,0-1.429.963,3.336,3.336,0,0,0-.146,3.843,2.414,2.414,0,0,0,2.06,1.179,6.22,6.22,0,0,0,1.906-.3c.193-.052.389-.1.643-.159Z" transform="translate(-5810.019 -1213.545)" fill="#f1f3f5"/>
  <path id="Контур_3162" data-name="Контур 3162" d="M8099.251,1254.677H8097.1v-7.661h-2.637v-1.727h7.439c0,.272.009.553.011.835s0,.547,0,.852h-2.649c-.021.455-.008.882-.011,1.307s0,.839,0,1.258v5.136Z" transform="translate(-7969.123 -1226.007)" fill="#f1f3f5"/>
  <path id="Контур_3163" data-name="Контур 3163" d="M13389.848,1254.493h-2.148v-7.656h-2.639v-1.727h7.416v1.7c-.859.048-1.727-.005-2.629.031Z" transform="translate(-13177.802 -1225.83)" fill="#f1f3f5"/>
  <path id="Контур_3164" data-name="Контур 3164" d="M11769.563,1244.987h-3.436c-.018.529-.008,1.027-.01,1.524,0,.515,0,1.03,0,1.545v4.549a10.175,10.175,0,0,1-2.107.028v-9.32c.244-.078,5.09-.1,5.553-.021Z" transform="translate(-11581.852 -1223.991)" fill="#f1f3f5"/>
  <path id="Контур_3165" data-name="Контур 3165" d="M14738.834,203.67h1.979c.07.27.1,8.646.029,9.317h-1.99C14738.783,212.74,14738.76,204.232,14738.834,203.67Z" transform="translate(-14510.566 -200.516)" fill="#f1f3f5"/>
  <path id="Контур_3166" data-name="Контур 3166" d="M15111.4,0h1.453c.227.648.59,1.135,1.354,1.126.732-.009,1.057-.512,1.3-1.122h1.451a2.192,2.192,0,0,1-.82,1.617,2.778,2.778,0,0,1-1.537.63,3.165,3.165,0,0,1-2.49-.676A2.015,2.015,0,0,1,15111.4,0Z" transform="translate(-14877.41)" fill="#f1f3f5"/>
</svg>
