<svg xmlns="http://www.w3.org/2000/svg" xmlns:xlink="http://www.w3.org/1999/xlink" width="234.984" height="43.333" viewBox="0 0 234.984 43.333">
  <defs>
    <linearGradient id="linear-gradient" x1="0.106" y1="0.405" x2="0.953" y2="0.405" gradientUnits="objectBoundingBox">
      <stop offset="0" stop-color="#fff"/>
      <stop offset="0.529" stop-color="#fff"/>
      <stop offset="1" stop-color="#fff"/>
    </linearGradient>
  </defs>
  <g id="Слой_x0020_1" transform="translate(0 57.75)">
    <path id="Контур_3128" data-name="Контур 3128" d="M0,35.048H7.278V13.167l9.4,14.266h.192l9.494-14.411V35.048h7.374V1.311h-8L16.868,15.577,8,1.311H0V35.048Zm38.63,0h7.278V13.167l9.4,14.266H55.5l9.494-14.411V35.048h7.374V1.311h-8L55.5,15.577,46.631,1.311h-8V35.048ZM81.743,1.311V8.3q0,4.531-.185,7.84c-.129,2.217-.305,4.081-.546,5.607a20.643,20.643,0,0,1-.9,3.727,6.909,6.909,0,0,1-1.229,2.217,3.7,3.7,0,0,1-1.551,1.061,5.334,5.334,0,0,1-1.5.268v6.352c.188.02.378.038.571.054.482.032.932.057,1.342.057a10.828,10.828,0,0,0,4.1-.683,7.246,7.246,0,0,0,3.084-2.37,13.367,13.367,0,0,0,2.128-4.514,39.526,39.526,0,0,0,1.237-7.133q.4-4.278.393-10.218V8.011h9.736V35.049h7.422V1.312h-24.1ZM132.857,9.7a10.714,10.714,0,0,1,4.771,1.02,7.561,7.561,0,0,1,3.149,2.844,8.15,8.15,0,0,1,1.141,4.33,8.3,8.3,0,0,1-1.141,4.386,7.46,7.46,0,0,1-3.149,2.844,10.829,10.829,0,0,1-4.771,1.012V9.7Zm0,26.7V32.735a20.786,20.786,0,0,0,7-1.141,15.151,15.151,0,0,0,5.262-3.149,13.689,13.689,0,0,0,3.309-4.74,15.185,15.185,0,0,0,1.148-5.912,14.851,14.851,0,0,0-1.165-5.88,13.329,13.329,0,0,0-3.326-4.651,15.436,15.436,0,0,0-5.269-3.068,21.1,21.1,0,0,0-6.964-1.1V.01h-7.422V3.094a21.19,21.19,0,0,0-6.98,1.1,15.376,15.376,0,0,0-5.27,3.06,13.305,13.305,0,0,0-3.317,4.642,14.805,14.805,0,0,0-1.157,5.847,15.4,15.4,0,0,0,1.148,5.945,13.666,13.666,0,0,0,3.309,4.747,15.154,15.154,0,0,0,5.262,3.156,20.673,20.673,0,0,0,7,1.141V36.4h7.422Zm-7.422-10.266a10.85,10.85,0,0,1-4.779-1.012,7.511,7.511,0,0,1-3.182-2.844,8.3,8.3,0,0,1-1.148-4.386,8.156,8.156,0,0,1,1.148-4.33,7.607,7.607,0,0,1,3.182-2.844,10.735,10.735,0,0,1,4.779-1.02V26.131Z" transform="translate(0 -50.815)" fill="#ff414a" fill-rule="evenodd"/>
    <text id="_2021" data-name="2021" transform="translate(157.984 -27.75)" fill="#fff" font-size="32" font-family="GothamPro-Bold, Gotham Pro" font-weight="700"><tspan x="0" y="0">2021</tspan></text>
    <rect id="Прямоугольник_191" data-name="Прямоугольник 191" width="71.425" height="6.355" transform="translate(158.898 -20.903)" fill="url(#linear-gradient)"/>
  </g>
</svg>
