<svg xmlns="http://www.w3.org/2000/svg" width="992" height="15.807" viewBox="0 0 992 15.807">
  <path id="Вычитание_1" data-name="Вычитание 1" d="M895.028,98.573,0,98.571v-15.8H915.734a28.313,28.313,0,0,1-6.448.781c-.189,0-.38,0-.567-.006a27.921,27.921,0,0,1-3.555-.335l-1.886,1.876a29.883,29.883,0,0,0,5.387.646c.209.007.4.01.6.01h.07a35.031,35.031,0,0,0,13.449-2.972h10.752c-8.908,5.328-16.441,8.876-24.249,8.876-.194,0-.39,0-.583-.007a31.072,31.072,0,0,1-9.957-2.045l-1.714,1.7a34.116,34.116,0,0,0,11.613,2.532c.186.007.382.01.6.01h.063c9.661,0,18.6-5.013,28.451-11.069h9.128c-2.724,1.565-5.426,3.233-8.04,4.846l-.056.035c-7.069,4.369-14.379,8.887-21.6,10.924h-15.8a47.866,47.866,0,0,1-8.313-3.343l-1.636,1.629c1.245.64,2.417,1.2,3.582,1.714Zm52.52,0h-9.18l1.557-.96.154-.1c3.154-1.946,6.415-3.959,9.681-5.769a40.785,40.785,0,0,1,9.553-3.81,40.061,40.061,0,0,1,20.189.046,41.2,41.2,0,0,1,9.737,3.947c.737.416,1.519.868,2.538,1.467l.007-2.524-.035-.02c-.471-.276-.957-.561-1.436-.828a43.389,43.389,0,0,0-10.262-4.161,42.211,42.211,0,0,0-21.281-.049A43.007,43.007,0,0,0,948.7,89.83c-3.4,1.884-6.713,3.933-9.921,5.915l-.006,0-.021.013c-1.5.927-3.054,1.886-4.587,2.81h-10.5a132.359,132.359,0,0,0,16.253-9.047l.022-.014.026-.016c3.2-1.977,6.5-4.019,9.808-5.848.551-.3,1.116-.6,1.679-.879H987.24c.681.335,1.359.693,2.016,1.062.739.417,1.521.869,2.538,1.467l.007-2.528h.2v15.8h-.923c-.3-.174-.548-.317-.783-.45l0,0a43.381,43.381,0,0,0-10.26-4.16,42.219,42.219,0,0,0-21.281-.048,43,43,0,0,0-10.073,4.018c-.37.2-.751.418-1.134.635Zm38.813,0H952.253a40.575,40.575,0,0,1,8.374-2.85,40.044,40.044,0,0,1,17.34,0,40.913,40.913,0,0,1,8.394,2.848Z" transform="translate(0 -82.766)" fill="#e9e9e9"/>
</svg>
