<svg id="Слой_x0020_1" xmlns="http://www.w3.org/2000/svg" width="352.572" height="75.134" viewBox="0 0 352.572 75.134">
  <path id="Контур_3754" data-name="Контур 3754" d="M432.834,111.628H419.791V93.1H415.28v22.554h17.554V111.63ZM444.6,92.684a11.755,11.755,0,0,0-8.758,3.646,11.527,11.527,0,0,0-3.157,8.043A11.546,11.546,0,0,0,444.6,116.065a11.686,11.686,0,0,0,8.684-3.5,11.944,11.944,0,0,0-.226-16.577,11.733,11.733,0,0,0-8.456-3.309Zm-7.442,11.689A7.635,7.635,0,0,1,439.182,99a7.765,7.765,0,0,1,10.827-.112,7.946,7.946,0,0,1,1.955,5.487,7.642,7.642,0,0,1-1.993,5.3,7.176,7.176,0,0,1-5.375,2.292,7.517,7.517,0,0,1-5.413-2.33,7.619,7.619,0,0,1-2.029-5.264Zm42.658-1.993h-10.15v3.834l5.677.339v4.022a8.366,8.366,0,0,1-4.848,1.354,7.27,7.27,0,0,1-5.188-1.993,7.589,7.589,0,0,1-2.143-5.6A7.894,7.894,0,0,1,465.038,99a7.246,7.246,0,0,1,5.525-2.254,7.948,7.948,0,0,1,6.2,2.819l2.931-2.931a11.827,11.827,0,0,0-9.133-3.946,12.162,12.162,0,0,0-8.608,3.195,11.318,11.318,0,0,0-3.458,8.458,11.617,11.617,0,0,0,2.782,8.081c2.1,2.406,5.15,3.646,9.209,3.646a10.367,10.367,0,0,0,5.789-1.5l.489,1.278,3.045-.451V102.384ZM483.3,93.1v22.554h4.549V106.44h11.314v-4.173H487.852v-5h12.742V93.1Zm30.743-.413a11.755,11.755,0,0,0-8.758,3.646,11.527,11.527,0,0,0-3.157,8.043,11.546,11.546,0,0,0,11.915,11.691,11.678,11.678,0,0,0,8.682-3.5,11.944,11.944,0,0,0-.226-16.577,11.733,11.733,0,0,0-8.456-3.309ZM506.6,104.371A7.635,7.635,0,0,1,508.633,99a7.765,7.765,0,0,1,10.827-.112,7.946,7.946,0,0,1,1.955,5.487,7.642,7.642,0,0,1-1.993,5.3,7.176,7.176,0,0,1-5.375,2.292,7.517,7.517,0,0,1-5.413-2.33,7.619,7.619,0,0,1-2.029-5.264ZM548.4,101.44a8.194,8.194,0,0,0-2.48-5.9,8.842,8.842,0,0,0-6.54-2.444H528.627v22.554h4.549v-5.976h6.24l3.57,5.976h5.188l-4.247-6.917a7.767,7.767,0,0,0,3.195-2.819,8.156,8.156,0,0,0,1.278-4.473Zm-15.224-4.209h6.09a4.223,4.223,0,0,1,3.532,1.316,4.162,4.162,0,0,1,1.052,2.9,4.258,4.258,0,0,1-1.128,2.9,4.484,4.484,0,0,1-3.42,1.24h-6.126V97.233Zm37.772,8.532V93.1H566.4v12.893a5.545,5.545,0,0,1-1.5,4.247,5.462,5.462,0,0,1-3.872,1.653,5,5,0,0,1-3.834-1.615,5.69,5.69,0,0,1-1.579-4.285V93.1h-4.549v12.668a10.293,10.293,0,0,0,2.857,7.48,9.734,9.734,0,0,0,7.1,2.782,9.562,9.562,0,0,0,6.879-2.67A10.058,10.058,0,0,0,570.945,105.763ZM574.4,93.1v22.554h4.435V100.276h.15l6.691,9.623H587.4l6.653-9.585h.15v15.335h4.623V93.1h-4.7l-7.4,10.713L579.1,93.1Zm39.351,22.554h16.839v-3.758h-9.962l4.924-3.91a23.248,23.248,0,0,0,3.608-3.57,7.15,7.15,0,0,0,1.579-4.473,6.408,6.408,0,0,0-2.1-5.036,10.122,10.122,0,0,0-6.765-2.218,10.654,10.654,0,0,0-8.872,4.4l2.82,2.556a7.183,7.183,0,0,1,6.052-3.195,5.486,5.486,0,0,1,3.91,1.24,3.372,3.372,0,0,1,.715,2.1,3.861,3.861,0,0,1-.789,2.33,11.12,11.12,0,0,1-2.48,2.594l-9.473,7.4v3.532Zm42.171-11.276a11.452,11.452,0,0,0-3.458-8.682,12.262,12.262,0,0,0-16.088,0,12.629,12.629,0,0,0,0,17.366,12.262,12.262,0,0,0,16.088,0A11.461,11.461,0,0,0,655.921,104.373Zm-18.644,0a8.285,8.285,0,0,1,1.805-5.6,7.36,7.36,0,0,1,10.675,0,9.592,9.592,0,0,1,0,11.2,7.36,7.36,0,0,1-10.675,0A8.292,8.292,0,0,1,637.277,104.373Zm20.443,11.276h16.839v-3.758H664.6l4.924-3.91a23.251,23.251,0,0,0,3.608-3.57,7.15,7.15,0,0,0,1.579-4.473,6.408,6.408,0,0,0-2.1-5.036,10.121,10.121,0,0,0-6.765-2.218,10.648,10.648,0,0,0-8.87,4.4l2.82,2.556a7.183,7.183,0,0,1,6.052-3.195,5.486,5.486,0,0,1,3.91,1.24,3.372,3.372,0,0,1,.715,2.1,3.86,3.86,0,0,1-.789,2.33,11.119,11.119,0,0,1-2.48,2.594l-9.473,7.4v3.532Zm19.954-16.426,3.081-1.2v17.63h4.173V93.1h-2.48l-6.278,2.931,1.5,3.195Z" transform="translate(-332.357 -74.174)" fill="#fff"/>
  <path id="Контур_3755" data-name="Контур 3755" d="M420.11,272.109a6.041,6.041,0,0,0-.082-12.081,6.035,6.035,0,0,0-4.471,1.835l1.168,1.4a4.809,4.809,0,0,1,3.321-1.386,3.853,3.853,0,0,1,3.788,3.271h-5.222V266.9h5.24a3.85,3.85,0,0,1-3.8,3.371,4.7,4.7,0,0,1-3.421-1.518l-1.318,1.352a6.082,6.082,0,0,0,4.806,2Zm13.532.25h2.037v-1.268c3.688,0,5.841-2.137,5.841-5.106,0-2.987-2.187-5.072-5.841-5.072v-1.1h-2.037v1.1c-3.654,0-5.841,2.087-5.841,5.056,0,2.987,2.169,5.122,5.841,5.122Zm0-3.087c-2.3,0-3.738-1.2-3.738-3.271,0-2.037,1.436-3.255,3.738-3.255Zm2.037,0v-6.526c2.32,0,3.738,1.218,3.738,3.255C439.418,268.07,438,269.272,435.679,269.272Zm13.265,3.087h2.037v-1.268c3.688,0,5.841-2.137,5.841-5.106,0-2.987-2.187-5.072-5.841-5.072v-1.1h-2.037v1.1c-3.654,0-5.841,2.087-5.841,5.056,0,2.987,2.169,5.122,5.841,5.122Zm0-3.087c-2.3,0-3.738-1.2-3.738-3.271,0-2.037,1.436-3.255,3.738-3.255Zm2.037,0v-6.526c2.318,0,3.738,1.218,3.738,3.255C454.719,268.07,453.3,269.272,450.981,269.272Zm8.143,2.636h8.744v-1.835h-6.691v-3.137h5.857V265.1h-5.857v-3.037h6.607v-1.835h-8.66V271.91Zm11.18,0h2.053v-3.389l1.819-1.869,3.988,5.256h2.486l-5.072-6.659,4.856-5.022h-2.52l-5.557,5.873v-5.873H470.3v11.681Zm14.968,0h2.069v-9.778h3.7v-1.9h-9.477v1.9h3.7Zm7.943,0h1.935l5.891-8.51v8.51h2.019V260.226h-1.919l-5.907,8.526v-8.526h-2.019Zm12.865,0h5.405c2.6,0,4.321-1.118,4.321-3.2a2.872,2.872,0,0,0-2.32-2.869,2.785,2.785,0,0,0,1.669-2.6,2.641,2.641,0,0,0-.785-1.969,4.219,4.219,0,0,0-3.053-1.034h-5.24v11.681Zm2.019-6.757v-3.1h2.953c1.318,0,2.053.567,2.053,1.486,0,1.1-.885,1.619-2.2,1.619h-2.8Zm0,4.938v-3.2h3.255c1.617,0,2.4.583,2.4,1.568,0,1.084-.851,1.635-2.252,1.635Zm10.028,1.819h2.053v-4.922h5.573v4.922h2.053V260.226h-2.053v4.856H520.18v-4.856h-2.053Zm12.682,0h4.706c2.7,0,4.4-1.468,4.4-3.822s-1.769-3.654-4.389-3.654h-2.686v-4.205h-2.037Zm2.037-1.835v-3.854h2.6c1.552,0,2.436.651,2.436,1.853,0,1.318-.885,2-2.4,2h-2.636Zm8.461,1.835h2.035V260.226h-2.035Zm10.028-12.6a2.546,2.546,0,0,0,2.62-2.336l-1.234-.234a1.414,1.414,0,0,1-2.772,0l-1.252.234a2.572,2.572,0,0,0,2.636,2.336Zm-4.99,12.6h1.935l5.891-8.51v8.51h2.019V260.226H554.27l-5.907,8.526v-8.526h-2.019Zm23.295.2a6.025,6.025,0,0,0,4.738-2.069L573.06,268.7a4.579,4.579,0,0,1-3.355,1.52,4.167,4.167,0,0,1,0-8.311,4.645,4.645,0,0,1,3.271,1.452l1.318-1.52a6.089,6.089,0,0,0-4.573-1.819,6.041,6.041,0,0,0-.084,12.081Zm6.891-.2h2.053v-3.389l1.819-1.869,3.988,5.256h2.486l-5.072-6.659,4.856-5.022h-2.52l-5.557,5.873v-5.873H576.53v11.681Zm12.1.134c2.3,0,3.654-1.486,3.654-8.912v-1.05h4.038v9.828h2.053V260.226h-8.009v2.3c0,6.993-1.1,7.742-2.286,7.742a2.351,2.351,0,0,1-.667-.1l-.2,1.685a6.794,6.794,0,0,0,1.418.184Zm11.763-.134h2.1l1.2-2.82h5.523l1.184,2.82h2.168l-5.14-11.763h-1.9l-5.14,11.763Zm4.055-4.639,2-4.673,2.019,4.673Zm8.794,7.143h1.8l.2-2.5h8.227v2.5h1.7l.284-4.339H624v-9.844h-8.143v1.651c0,3.9-.517,6.274-1.486,8.193h-1.134v4.339Zm3.321-4.339a15.509,15.509,0,0,0,1.268-6.657v-1.336h4.121v7.993Z" transform="translate(-332.381 -205.474)" fill="#fff"/>
  <path id="Контур_3756" data-name="Контур 3756" d="M0,75.134l68.654-7.121L55.555,0,38.466,55.04Z" fill="#ff414a" fill-rule="evenodd"/>
  <path id="Контур_3757" data-name="Контур 3757" d="M197.167,8.838,209.729,0l-5.783,49.141-11.306,5.9Z" transform="translate(-154.174)" fill="#fff" fill-rule="evenodd"/>
</svg>
