<svg xmlns="http://www.w3.org/2000/svg" xmlns:xlink="http://www.w3.org/1999/xlink" width="374.035" height="61.003" viewBox="0 0 374.035 61.003">
  <defs>
    <linearGradient id="linear-gradient" x1="0.319" y1="0.405" x2="0.956" y2="0.405" gradientUnits="objectBoundingBox">
      <stop offset="0" stop-color="#ff414a"/>
      <stop offset="0.529" stop-color="#90f"/>
      <stop offset="1" stop-color="#039"/>
    </linearGradient>
  </defs>
  <g id="Слой_x0020_1" transform="translate(0 0)">
    <path id="Контур_3233" data-name="Контур 3233" d="M0,58.74H12.2V22.058L27.956,45.975h.324L44.2,21.816V58.74H56.559V2.181H43.147L28.279,26.1,13.414,2.181H0V58.74Zm64.762,0h12.2V22.058L92.718,45.975h.324l15.918-24.159V58.74h12.362V2.181H107.909L93.042,26.1,78.176,2.181H64.764V58.74ZM137.039,2.181V13.9q0,7.6-.31,13.142c-.215,3.717-.512,6.841-.916,9.4a34.7,34.7,0,0,1-1.507,6.249,11.574,11.574,0,0,1-2.06,3.717,6.178,6.178,0,0,1-2.6,1.777,8.957,8.957,0,0,1-2.52.45v10.65q.47.052.958.091c.808.054,1.563.094,2.249.094a18.154,18.154,0,0,0,6.867-1.145,12.146,12.146,0,0,0,5.171-3.973,22.383,22.383,0,0,0,3.568-7.568,66.277,66.277,0,0,0,2.075-11.958q.666-7.171.66-17.129V13.414h16.321V58.741h12.443V2.182h-40.4Zm85.69,14.059a17.935,17.935,0,0,1,8,1.711,12.686,12.686,0,0,1,5.278,4.768,13.662,13.662,0,0,1,1.912,7.259,13.9,13.9,0,0,1-1.912,7.353,12.515,12.515,0,0,1-5.278,4.768,18.134,18.134,0,0,1-8,1.7V16.241Zm0,44.762v-6.14a34.892,34.892,0,0,0,11.742-1.912,25.427,25.427,0,0,0,8.82-5.278,22.974,22.974,0,0,0,5.548-7.945,25.479,25.479,0,0,0,1.925-9.911,24.9,24.9,0,0,0-1.953-9.857,22.352,22.352,0,0,0-5.576-7.8A25.876,25.876,0,0,0,234.4,7.017a35.432,35.432,0,0,0-11.675-1.846V0H210.284V5.171a35.46,35.46,0,0,0-11.7,1.846,25.758,25.758,0,0,0-8.835,5.13,22.269,22.269,0,0,0-5.561,7.784,24.837,24.837,0,0,0-1.94,9.8,25.781,25.781,0,0,0,1.925,9.965,22.9,22.9,0,0,0,5.548,7.958,25.456,25.456,0,0,0,8.82,5.293,34.623,34.623,0,0,0,11.742,1.912V61h12.443ZM210.286,43.791a18.188,18.188,0,0,1-8.012-1.7,12.573,12.573,0,0,1-5.332-4.768,13.9,13.9,0,0,1-1.925-7.353,13.671,13.671,0,0,1,1.925-7.259,12.762,12.762,0,0,1,5.332-4.768,18.018,18.018,0,0,1,8.012-1.711V43.79Z" transform="translate(0 0)" fill="#ff414a" fill-rule="evenodd"/>
    <path id="Контур_3234" data-name="Контур 3234" d="M1846.541,43.011h26.583V36.184h-15.652l5.85-4.517c6.363-4.927,9.442-7.9,9.442-13.907,0-6.826-4.927-11.188-12.368-11.188-6.416,0-9.853,2.617-13.395,7.442l5.542,4.464c2.668-3.285,4.568-4.824,7.339-4.824,2.822,0,4.824,1.642,4.824,4.67,0,2.977-1.745,4.927-6.209,8.623l-11.959,9.8v6.261Zm44.728.615c9.6,0,16.012-8.16,16.012-18.579,0-10.52-6.416-18.577-15.909-18.577-9.545,0-16.012,8.16-16.012,18.577C1875.36,35.568,1881.673,43.626,1891.27,43.626Zm.1-7.134c-4.773,0-7.9-4.875-7.9-11.445,0-6.671,3.078-11.445,7.8-11.445s7.9,4.927,7.9,11.445C1899.173,31.668,1896.144,36.492,1891.372,36.492Zm17.272,6.517h26.583V36.183h-15.653l5.85-4.517c6.364-4.927,9.443-7.9,9.443-13.907,0-6.826-4.927-11.188-12.368-11.188-6.416,0-9.853,2.617-13.395,7.442l5.542,4.464c2.668-3.285,4.568-4.824,7.339-4.824,2.822,0,4.824,1.642,4.824,4.67,0,2.977-1.745,4.927-6.21,8.623l-11.958,9.8v6.261Zm35.183,0h7.8V6.828h-5.389l-10.316,3.079,1.643,6.467,6.261-1.539V43.009Z" transform="translate(-1578.626 -5.531)" fill="#fff"/>
    <path id="Контур_3235" data-name="Контур 3235" d="M1834.99,356.844h107.8V346.19h-107.8Z" transform="translate(-1568.752 -295.961)" fill-rule="evenodd" fill="url(#linear-gradient)"/>
  </g>
</svg>
