<svg xmlns="http://www.w3.org/2000/svg" width="53.654" height="269.251" viewBox="0 0 53.654 269.251">
  <path id="Вычитание_21" data-name="Вычитание 21" d="M-3854.108,279.251h-1.6L-3904,226.939v-.792l.436-.471,49.455,53.573Zm-7.531,0h-1.6L-3904,235.1V234.3l.436-.472,41.924,45.417Zm-7.531,0h-1.6L-3904,243.257v-.79l.436-.475,34.393,37.258Zm-7.533,0h-1.6l-25.7-27.836v-.792l.436-.472,26.86,29.1Zm-7.529,0h-1.6L-3904,259.572v-.792l.436-.473,19.331,20.943Zm-7.533,0h-1.6L-3904,267.732v-.791l.436-.472,11.8,12.781Zm-7.532,0h-1.6l-3.1-3.36V275.1l.436-.471,4.266,4.622Zm48.15-3.214L-3904,218.783v-.791l.436-.473,53.218,57.649-.8.868Zm0-8.155h0L-3904,210.622v-.793l.436-.468,53.218,57.653-.8.866Zm0-8.158h0L-3904,202.467v-.793l.436-.473,53.218,57.653-.8.868Zm0-8.161L-3904,194.3v-.791l.436-.474,53.218,57.652-.8.87Zm0-8.159L-3904,186.147v-.792l.436-.472,53.218,57.651-.8.869Zm0-8.155h0L-3904,177.988V177.2l.436-.47,53.218,57.65-.8.87Zm0-8.163L-3904,169.827v-.791l.436-.471,53.218,57.651-.8.869Zm0-8.16L-3904,161.67v-.79l.436-.472,53.218,57.65-.8.867Zm0-8.157h0L-3904,153.514v-.792l.436-.474,53.218,57.654-.8.866Zm0-8.158L-3904,145.353v-.793l.436-.472,53.218,57.652-.8.87Zm0-8.157h0L-3904,137.2V136.4l.436-.47,53.218,57.648-.8.87Zm0-8.157h0L-3904,129.038v-.793l.436-.471,53.218,57.651-.8.871Zm0-8.161h0L-3904,120.878v-.791l.436-.472,53.218,57.652-.8.868Zm0-8.16h0L-3904,112.721v-.792l.436-.471,53.218,57.652-.8.865Zm0-8.155h0L-3904,104.563v-.792l.436-.475,53.218,57.657-.8.866Zm0-8.16h0L-3904,96.4v-.792l.436-.471,53.218,57.65-.8.87Zm0-8.155,0,0L-3904,88.244v-.791l.436-.471,53.218,57.65-.8.87Zm0-8.161L-3904,80.086v-.792l.436-.473,53.218,57.654-.8.869Zm0-8.164h0L-3904,71.927v-.791l.436-.471,53.218,57.65-.8.866Zm0-8.155L-3904,63.77v-.792l.436-.471,53.218,57.652-.8.867Zm0-8.157h0L-3904,55.612v-.791l.436-.473L-3850.346,112l-.8.867Zm0-8.159L-3904,47.455v-.793l.436-.471,53.218,57.65-.8.869Zm0-8.158L-3904,39.293V38.5l.436-.472,53.218,57.654-.8.868Zm0-8.157h0L-3904,31.136v-.79l.436-.473,53.218,57.652-.8.869Zm0-8.162h0L-3904,22.977v-.792l.436-.471,53.218,57.651-.8.867Zm0-8.158h0L-3904,14.816v-.792l.436-.472,53.218,57.652-.8.87Zm0-8.159h0L-3900.919,10h1.605l48.968,53.049-.8.867Zm0-8.158L-3893.386,10h1.6l41.436,44.89-.8.868Zm0-8.16L-3885.852,10h1.6l33.9,36.729-.8.869Zm0-8.156L-3878.324,10h1.6l26.375,28.572-.8.87Zm0-8.161h0L-3870.791,10h1.6l18.843,20.413-.8.867Zm0-8.16h0L-3863.26,10h1.6l11.311,12.254-.8.867Zm0-8.153h0L-3855.732,10h1.6l3.785,4.1-.8.867Z" transform="translate(3904 -10)" fill="#9da7b0"/>
</svg>
