<svg xmlns="http://www.w3.org/2000/svg" width="372" height="162" viewBox="0 0 372 162">
  <g id="Сгруппировать_398" data-name="Сгруппировать 398" transform="translate(-1424 -1180)">
    <rect id="Прямоугольник_337" data-name="Прямоугольник 337" width="372" height="162" transform="translate(1424 1180)" fill="#fff"/>
    <path id="logo" d="M20.971,7.818a9.341,9.341,0,0,0,8.5.681,9.341,9.341,0,0,0,5.511-6.508,43.984,43.984,0,0,1,19.705,0A9.341,9.341,0,0,0,60.2,8.5a9.341,9.341,0,0,0,8.5-.681,44.258,44.258,0,0,1,13.923,14.1,9.341,9.341,0,0,0,5.694,14.056,43.79,43.79,0,0,1,0,18.771A9.341,9.341,0,0,0,82.621,68.8,44.259,44.259,0,0,1,68.7,82.9a9.341,9.341,0,0,0-14.011,5.827,44.214,44.214,0,0,1-19.705,0A9.341,9.341,0,0,0,20.971,82.9,44.258,44.258,0,0,1,7.048,68.8,9.341,9.341,0,0,0,7.8,60.315a9.341,9.341,0,0,0-6.448-5.569,44.214,44.214,0,0,1,0-18.771A9.341,9.341,0,0,0,7.8,30.406a9.341,9.341,0,0,0-.755-8.487,44.258,44.258,0,0,1,13.923-14.1ZM44.857,76.5A31.137,31.137,0,1,0,13.72,45.36,31.137,31.137,0,0,0,44.857,76.5Zm-9.563-6.227V54.212H53.975V70.447a26.689,26.689,0,1,0-18.682-.178Zm18.682-29.98a9.341,9.341,0,1,0-9.341,9.341,9.341,9.341,0,0,0,9.341-9.341ZM193.067,20.05a5.783,5.783,0,1,1-5.783-5.783A5.783,5.783,0,0,1,193.067,20.05ZM181.5,62.263V28.68h11.565V62.263Zm32.16-10.987c.089,8.229,6.361,12.143,14.812,12.143,9.252,0,14.857-3.558,14.857-11.61q0-6.205-5.2-8.674a29.188,29.188,0,0,0-7.562-2l-1.557-.267-.311-.044c-1.379-.311-3.47-.8-3.47-2.491a2.241,2.241,0,0,1,.845-1.824,4.214,4.214,0,0,1,4.848.089,2.99,2.99,0,0,1,.934,2.4h10.853a10.221,10.221,0,0,0-4-8.229c-2.535-2.091-5.96-3.158-10.231-3.158-6.717,0-14.323,3.381-14.323,11.12a10.428,10.428,0,0,0,1.423,5.516,10.286,10.286,0,0,0,3.692,3.069,23.592,23.592,0,0,0,6.983,1.913,19.029,19.029,0,0,1,4.359,1.156,2.178,2.178,0,0,1,.445,3.825,4.561,4.561,0,0,1-5.16-.222,3.392,3.392,0,0,1-1.068-2.713ZM248,47.851c0,9.474,7.384,15.524,16.547,15.524s16.547-6.049,16.547-15.524V28.68H269.53V47.807a4.985,4.985,0,1,1-9.964,0V28.68H248Zm-38.387,9.7a5.827,5.827,0,1,1-5.827-5.827A5.827,5.827,0,0,1,209.614,57.548ZM167.757,28.68V17.915h-4.137l-13.656,14.9v4.893h6.227v10.9c-.178,4.359.534,8.184,3.6,10.9,2.891,2.58,5.516,2.8,11.387,2.8h4.893V52.166h-4.937a3.662,3.662,0,0,1-3.381-3.558v-10.9h8.14V28.68ZM135.642,59.861a16.815,16.815,0,0,1-10.32,3.514,17.614,17.614,0,0,1-17.3-17.881c0-9.875,7.74-17.881,17.3-17.881a17.07,17.07,0,0,1,10.5,3.647l.934-2.58h8.941V62.263h-9.208Zm-.89-14.367a7.542,7.542,0,1,1-7.562-7.74A7.642,7.642,0,0,1,134.753,45.494Z" transform="translate(1457.279 1215.643)" fill="#39444f" fill-rule="evenodd"/>
  </g>
</svg>
