<svg xmlns="http://www.w3.org/2000/svg" width="372" height="162" viewBox="0 0 372 162">
  <g id="Сгруппировать_400" data-name="Сгруппировать 400" transform="translate(-2251 -1267)">
    <rect id="Прямоугольник_344" data-name="Прямоугольник 344" width="372" height="162" transform="translate(2251 1267)" fill="#fff"/>
    <g id="Сгруппировать_328" data-name="Сгруппировать 328" transform="translate(2228.4 1041.365)">
      <path id="Контур_3385" data-name="Контур 3385" d="M124.872,299.3c0,5.973,2.625,7.6,6.7,7.6,4.118,0,6.7-1.629,6.7-7.6v-3.575h10.272v2.217c0,13.259-7.014,18.01-16.969,18.01-10,0-16.969-4.751-16.969-18.01V278.71c0-13.259,7.014-18.01,16.969-18.01,10,0,16.969,4.751,16.969,18.01v.136H138.266v-1.493c0-5.973-2.625-7.6-6.7-7.6-4.118,0-6.7,1.629-6.7,7.6Z" fill="#00316a"/>
      <path id="Контур_3386" data-name="Контур 3386" d="M204.967,313.259v5.385c0,4.027,2.4,5.792,5.521,5.792,3.937,0,5.521-2.534,5.521-5.656h9.367c-.453,8.326-5.43,13.259-14.888,13.259-8.96,0-14.888-5.521-14.888-14.39V304.39c0-8.869,5.973-14.39,14.888-14.39,8.733,0,14.888,5.521,14.888,13.8v9.457Zm11.041-7.6V303.44c0-3.575-1.72-5.792-5.521-5.792s-5.521,2.217-5.521,5.792v2.217Z" transform="translate(-44.347 -16.041)" fill="#00316a"/>
      <path id="Контур_3387" data-name="Контур 3387" d="M270.5,316.158V262.4h14.39l9.276,35.3h.181l9.276-35.3h14.39v53.758h-8.779v-42.31H309.1l-10.951,42.31h-7.783l-10.951-42.31h-.136v42.31Z" transform="translate(-85.354 -0.931)" fill="#00316a"/>
      <path id="Контур_3388" data-name="Контур 3388" d="M381.8,316.1l13.349-53.8h13.168l12.942,53.8h-9.82l-2.625-11.313H394.606l-2.9,11.313ZM396.461,295.7h10.227L401.71,273.93h-.136Z" transform="translate(-146.289 -0.876)" fill="#00316a"/>
      <path id="Контур_3389" data-name="Контур 3389" d="M489.955,262.4v9.1H477.964v44.663H467.692V271.5H455.7v-9.1Z" transform="translate(-186.749 -0.931)" fill="#00316a"/>
    </g>
    <text id="RUSSIA" transform="translate(2437 1401)" fill="#9acf14" font-size="36" font-family="SegoeUI, Segoe UI"><tspan x="-58.658" y="0">RUSSIA</tspan></text>
  </g>
</svg>
