<?xml version="1.0" encoding="UTF-8" standalone="no"?>
<svg
   xmlns:dc="http://purl.org/dc/elements/1.1/"
   xmlns:cc="http://creativecommons.org/ns#"
   xmlns:rdf="http://www.w3.org/1999/02/22-rdf-syntax-ns#"
   xmlns:svg="http://www.w3.org/2000/svg"
   xmlns="http://www.w3.org/2000/svg"
   xmlns:sodipodi="http://sodipodi.sourceforge.net/DTD/sodipodi-0.dtd"
   xmlns:inkscape="http://www.inkscape.org/namespaces/inkscape"
   inkscape:version="1.0 (4035a4fb49, 2020-05-01)"
   sodipodi:docname="contact_icon_completed_mobile.svg"
   id="svg12"
   viewBox="0 0 96.99 96.99"
   style="shape-rendering:geometricPrecision; text-rendering:geometricPrecision; image-rendering:optimizeQuality; fill-rule:evenodd; clip-rule:evenodd"
   version="1.1"
   height="12.2767mm"
   width="12.2767mm"
   xml:space="preserve"><metadata
   id="metadata16"><rdf:RDF><cc:Work
       rdf:about=""><dc:format>image/svg+xml</dc:format><dc:type
         rdf:resource="http://purl.org/dc/dcmitype/StillImage" /><dc:title></dc:title></cc:Work></rdf:RDF></metadata><sodipodi:namedview
   inkscape:current-layer="Слой_x0020_1"
   inkscape:window-maximized="1"
   inkscape:window-y="-8"
   inkscape:window-x="-8"
   inkscape:cy="23.200063"
   inkscape:cx="23.200063"
   inkscape:zoom="18.318916"
   showgrid="false"
   id="namedview14"
   inkscape:window-height="1017"
   inkscape:window-width="1920"
   inkscape:pageshadow="2"
   inkscape:pageopacity="0"
   guidetolerance="10"
   gridtolerance="10"
   objecttolerance="10"
   borderopacity="1"
   bordercolor="#666666"
   pagecolor="#ffffff" />
 <defs
   id="defs4">
  <style
   id="style2"
   type="text/css">
   <![CDATA[
    .fil1 {fill:none}
    .fil0 {fill:#00124D;fill-rule:nonzero}
   ]]>
  </style>
 </defs>
 <g
   id="Слой_x0020_1">
  <metadata
   id="CorelCorpID_0Corel-Layer" />
  <path
   style="fill:#008000"
   id="path7"
   d="M61.89 80.76c0,-2.36 1.82,-4.21 4.27,-4.21 1.65,0 2.68,0.72 3.4,1.71l-1.64 1.27c-0.46,-0.58 -1.01,-0.94 -1.78,-0.94 -1.13,0 -1.93,0.96 -1.93,2.16 0,1.21 0.8,2.16 1.93,2.16 0.84,0 1.34,-0.39 1.83,-0.98l1.69 1.2c-0.76,1.05 -1.79,1.83 -3.58,1.83 -2.31,0 -4.18,-1.77 -4.18,-4.21zm-33.96 0c0,-2.32 1.87,-4.21 4.37,-4.21 2.5,0 4.35,1.86 4.35,4.21 0,2.32 -1.87,4.21 -4.37,4.21 -2.5,0 -4.35,-1.86 -4.35,-4.21zm2.3 0c0,1.17 0.85,2.19 2.07,2.19 1.24,0 2.06,-1 2.06,-2.19 0,-1.17 -0.84,-2.19 -2.08,-2.19 -1.23,0 -2.05,0.99 -2.05,2.19zm-10.51 0c0,-2.36 1.82,-4.21 4.27,-4.21 1.66,0 2.68,0.72 3.4,1.71l-1.64 1.27c-0.46,-0.58 -1.01,-0.94 -1.78,-0.94 -1.13,0 -1.93,0.96 -1.93,2.16 0,1.21 0.8,2.16 1.93,2.16 0.85,0 1.34,-0.39 1.83,-0.98l1.69 1.2c-0.76,1.05 -1.79,1.83 -3.59,1.83 -2.31,0 -4.18,-1.77 -4.18,-4.21zm52.87 4.05l0 -6.13 -2.43 0 0 -1.97 7.1 0 0 1.97 -2.43 0 0 6.13 -2.24 0zm-13.09 0l-0.59 -1.45 -3.12 0 -0.58 1.45 -2.36 0 3.45 -8.15 2.16 0 3.45 8.15 -2.41 0zm-3.05 -3.19l1.82 0 -0.9 -2.3 -0.91 2.3zm-7.56 3.19l0 -6.13 -2.43 0 0 -1.97 7.1 0 0 1.97 -2.43 0 0 6.13 -2.24 0zm-5.38 0l-3.46 -4.44 0 4.44 -2.22 0 0 -8.1 2.09 0 3.33 4.28 0 -4.28 2.22 0 0 8.1 -1.97 0zm-12.1 -26.15c-1.75,0 -3.34,-0.71 -4.48,-1.86l0 -0.01c-1.15,-1.15 -1.86,-2.73 -1.86,-4.47l0 -29.59c0,-1.75 0.71,-3.34 1.86,-4.48l0.01 0c1.15,-1.15 2.73,-1.86 4.47,-1.86l14.79 0c1.17,0 2.11,0.94 2.11,2.11 0,1.17 -0.94,2.11 -2.11,2.11l-14.79 0c-0.58,0 -1.12,0.24 -1.5,0.61 -0.38,0.39 -0.61,0.91 -0.61,1.5l0 29.59c0,0.59 0.23,1.12 0.61,1.5 0.39,0.38 0.92,0.62 1.5,0.62l29.59 0c0.58,0 1.11,-0.24 1.5,-0.62 0.38,-0.38 0.62,-0.91 0.62,-1.5l0 -14.79c0,-1.17 0.94,-2.11 2.11,-2.11 1.17,0 2.11,0.95 2.11,2.11l0 14.79c0,1.75 -0.71,3.34 -1.86,4.48 -1.14,1.15 -2.73,1.86 -4.48,1.86l-29.59 0zm6.41 -14.28c-0.09,-0.36 -0.08,-0.71 0.01,-1.05l2.11 -8.43c0.1,-0.38 0.29,-0.72 0.56,-0.98l20.07 -20.08c0.61,-0.61 1.34,-1.09 2.14,-1.42 0.8,-0.33 1.66,-0.51 2.52,-0.51 1.81,0 3.46,0.74 4.66,1.93l0.01 0c1.19,1.19 1.93,2.84 1.93,4.66 0,0.86 -0.18,1.72 -0.51,2.52 -0.33,0.8 -0.81,1.53 -1.43,2.15l-20.08 20.07c-0.31,0.31 -0.69,0.5 -1.1,0.58l-8.34 2.09c-0.17,0.04 -0.34,0.06 -0.51,0.06 -0.94,0 -1.81,-0.64 -2.05,-1.6zm25.75 -27.57l-19.69 19.69 -1.12 4.47 4.47 -1.12 19.67 -19.67c0.23,-0.23 0.4,-0.49 0.52,-0.77 0.11,-0.27 0.17,-0.58 0.17,-0.91 0,-0.65 -0.26,-1.25 -0.69,-1.68 -0.43,-0.43 -1.02,-0.69 -1.68,-0.69 -0.32,0 -0.63,0.06 -0.91,0.18l0 -0c-0.27,0.11 -0.52,0.28 -0.74,0.5z"
   class="fil0" />
  <rect
   id="rect9"
   height="96.99"
   width="96.99"
   y="0"
   x="-0"
   class="fil1" />
 </g>
</svg>
