<?xml version="1.0" encoding="UTF-8" standalone="no"?>
<svg
   xmlns:dc="http://purl.org/dc/elements/1.1/"
   xmlns:cc="http://creativecommons.org/ns#"
   xmlns:rdf="http://www.w3.org/1999/02/22-rdf-syntax-ns#"
   xmlns:svg="http://www.w3.org/2000/svg"
   xmlns="http://www.w3.org/2000/svg"
   xmlns:sodipodi="http://sodipodi.sourceforge.net/DTD/sodipodi-0.dtd"
   xmlns:inkscape="http://www.inkscape.org/namespaces/inkscape"
   inkscape:version="1.0 (4035a4fb49, 2020-05-01)"
   sodipodi:docname="pdf_icon_disabled_mobile.svg"
   id="svg12"
   viewBox="0 0 178.44 178.44"
   style="shape-rendering:geometricPrecision; text-rendering:geometricPrecision; image-rendering:optimizeQuality; fill-rule:evenodd; clip-rule:evenodd"
   version="1.1"
   height="12.2767mm"
   width="12.2767mm"
   xml:space="preserve"><metadata
   id="metadata16"><rdf:RDF><cc:Work
       rdf:about=""><dc:format>image/svg+xml</dc:format><dc:type
         rdf:resource="http://purl.org/dc/dcmitype/StillImage" /><dc:title></dc:title></cc:Work></rdf:RDF></metadata><sodipodi:namedview
   inkscape:current-layer="Слой_x0020_1"
   inkscape:window-maximized="1"
   inkscape:window-y="-8"
   inkscape:window-x="-8"
   inkscape:cy="23.200063"
   inkscape:cx="23.200063"
   inkscape:zoom="18.318916"
   showgrid="false"
   id="namedview14"
   inkscape:window-height="1017"
   inkscape:window-width="1920"
   inkscape:pageshadow="2"
   inkscape:pageopacity="0"
   guidetolerance="10"
   gridtolerance="10"
   objecttolerance="10"
   borderopacity="1"
   bordercolor="#666666"
   pagecolor="#ffffff" />
 <defs
   id="defs4">
  <style
   id="style2"
   type="text/css">
   <![CDATA[
    .fil1 {fill:none}
    .fil0 {fill:#00124D;fill-rule:nonzero}
   ]]>
  </style>
 </defs>
 <g
   id="Слой_x0020_1">
  <metadata
   id="CorelCorpID_0Corel-Layer" />
  <path
   style="fill:#4d4d4d"
   id="path7"
   d="M101.19 152.99l0 -17.38 13.91 0 0 4.22 -9.09 0 0 2.96 8.22 0 0 4 -8.22 0 0 6.21 -4.82 0zm-18.99 0l0 -17.38 6.7 0c6.21,0 9.81,3.58 9.81,8.64 0,5.02 -3.65,8.74 -9.91,8.74l-6.6 0zm4.82 -4.27l1.96 0c2.88,0 4.79,-1.59 4.79,-4.44 0,-2.78 -1.91,-4.45 -4.79,-4.45l-1.96 0 0 8.89zm-21.52 4.27l0 -17.38 7.45 0c4.4,0 7.22,2.26 7.22,6.16 0,4.1 -3.15,6.26 -7.47,6.26l-2.38 0 0 4.97 -4.82 0zm4.82 -8.74l2.28 0c1.72,0 2.76,-0.89 2.76,-2.31 0,-1.49 -1.04,-2.28 -2.78,-2.28l-2.26 0 0 4.59zm-11.19 -32.79c-3.55,0 -6.77,-1.45 -9.1,-3.78l-0.02 0c-2.33,-2.33 -3.78,-5.56 -3.78,-9.12l0.01 -17.2c0,-2.36 1.92,-4.28 4.28,-4.28 2.36,0 4.28,1.92 4.28,4.28l0 17.2c0.02,1.19 0.5,2.27 1.28,3.04 0.77,0.78 1.85,1.26 3.04,1.26l60.21 0c1.19,0 2.27,-0.48 3.04,-1.26 0.78,-0.78 1.26,-1.85 1.26,-3.04l0 -17.2 0.01 0c0,-2.38 1.93,-4.3 4.3,-4.3 2.38,0 4.3,1.93 4.3,4.3l0 17.2c0,3.56 -1.45,6.79 -3.78,9.12 -2.33,2.33 -5.56,3.78 -9.12,3.78l-60.21 0zm30.21 -25.8l-0.1 0 -0.1 0 -0.01 0 -0.1 -0 -0.01 0 -0.09 -0c-0.32,-0.03 -0.62,-0.08 -0.91,-0.17l-0.01 -0.01 -0.09 -0.02 -0.01 -0.01c-0.06,-0.02 -0.12,-0.04 -0.18,-0.06l-0.02 -0.01 -0.06 -0.02 -0.01 -0 -0.06 -0.03 -0.03 -0.02 -0.08 -0.04 -0.08 -0.03 -0.03 -0.02 -0.08 -0.04 -0 -0c-0.36,-0.19 -0.7,-0.42 -1.01,-0.72l-0.08 -0.07 -21.5 -21.5c-1.68,-1.68 -1.68,-4.4 0,-6.08 1.68,-1.68 4.4,-1.68 6.08,0l14.16 14.16 0 -41.22c0,-2.38 1.93,-4.3 4.3,-4.3 2.38,0 4.3,1.93 4.3,4.3l0 41.22 14.16 -14.16c1.68,-1.68 4.4,-1.68 6.08,0 1.68,1.68 1.68,4.4 0,6.08l-21.5 21.5c-0.35,0.35 -0.75,0.63 -1.17,0.84l-0 0c-0.07,0.03 -0.12,0.06 -0.18,0.08l-0.02 0.01 -0.08 0.03 -0.01 0 -0.06 0.02 -0.02 0.01 -0 0c-0.06,0.02 -0.11,0.04 -0.18,0.06l-0.01 0.01 -0.09 0.02 -0.01 0.01c-0.29,0.08 -0.6,0.14 -0.91,0.17l-0.09 0 -0.01 0 -0.1 0 -0.01 0z"
   class="fil0" />
  <rect
   id="rect9"
   height="178.44"
   width="178.44"
   y="0"
   x="-0"
   class="fil1" />
 </g>
</svg>
