<?xml version="1.0" encoding="UTF-8"?>
<!DOCTYPE svg PUBLIC "-//W3C//DTD SVG 1.1//EN" "http://www.w3.org/Graphics/SVG/1.1/DTD/svg11.dtd">
<!-- Creator: CorelDRAW 2019 (64-Bit) -->
<svg xmlns="http://www.w3.org/2000/svg" xml:space="preserve" width="12.2767mm" height="12.2767mm" version="1.1" style="shape-rendering:geometricPrecision; text-rendering:geometricPrecision; image-rendering:optimizeQuality; fill-rule:evenodd; clip-rule:evenodd"
viewBox="0 0 117.43 117.43"
 xmlns:xlink="http://www.w3.org/1999/xlink"
 xmlns:xodm="http://www.corel.com/coreldraw/odm/2003">
 <defs>
  <style type="text/css">
   <![CDATA[
    .fil1 {fill:none}
    .fil0 {fill:#00124D;fill-rule:nonzero}
   ]]>
  </style>
 </defs>
 <g id="Слой_x0020_1">
  <metadata id="CorelCorpID_0Corel-Layer"/>
  <path class="fil0" d="M57.36 96.01c0,-3.28 2.65,-5.95 6.18,-5.95 3.53,0 6.14,2.63 6.14,5.95 0,3.29 -2.65,5.95 -6.18,5.95 -3.53,0 -6.14,-2.63 -6.14,-5.95zm3.25 0c0,1.65 1.19,3.09 2.93,3.09 1.75,0 2.91,-1.4 2.91,-3.09 0,-1.65 -1.19,-3.09 -2.94,-3.09 -1.73,0 -2.89,1.41 -2.89,3.09zm-16.83 0c0,-3.28 2.65,-5.95 6.18,-5.95 3.53,0 6.14,2.63 6.14,5.95 0,3.29 -2.65,5.95 -6.18,5.95 -3.53,0 -6.15,-2.63 -6.15,-5.95zm3.25 0c0,1.65 1.19,3.09 2.92,3.09 1.75,0 2.91,-1.4 2.91,-3.09 0,-1.65 -1.19,-3.09 -2.94,-3.09 -1.73,0 -2.89,1.41 -2.89,3.09zm33.3 5.72l0 -6.57 -2.93 4.48 -0.07 0 -2.91 -4.44 0 6.54 -3.1 0 0 -11.44 3.35 0 2.73 4.43 2.73 -4.43 3.35 0 0 11.44 -3.15 0zm-47.44 0l0 -2.31 5.74 -6.45 -5.54 0 0 -2.68 9.92 0 0 2.3 -5.74 6.45 5.74 0 0 2.68 -10.12 0zm25.82 -29.65l-11.32 0c-1.56,0 -2.83,-1.27 -2.83,-2.83 0,-1.56 1.27,-2.83 2.83,-2.83l8.49 0 0 -5.67 -19.82 0.01c-2.34,0 -4.46,-0.95 -5.99,-2.49l-0.01 0c-1.54,-1.54 -2.49,-3.66 -2.49,-6.01l0 -28.31c0,-2.34 0.95,-4.46 2.49,-5.99l0.01 -0.01c1.54,-1.54 3.66,-2.49 5.99,-2.49l0 -0 45.3 0c2.34,0 4.46,0.95 5.99,2.49l0.01 0c1.54,1.54 2.49,3.66 2.49,6l-0.01 28.31 0.01 0c0,2.33 -0.95,4.46 -2.49,6 -1.52,1.54 -3.64,2.48 -6,2.48l-19.82 0 0 5.67 8.49 0c1.56,0 2.83,1.27 2.83,2.83 0,1.56 -1.27,2.83 -2.83,2.83l-11.32 0zm0.17 -16.98l22.48 0.01c0.77,0 1.48,-0.32 2,-0.84l0.01 0c0.5,-0.51 0.82,-1.21 0.82,-2l0.01 -28.31c-0.01,-0.78 -0.33,-1.49 -0.84,-2 -0.5,-0.51 -1.22,-0.83 -2,-0.83l-45.3 0c-0.79,0 -1.5,0.32 -2.01,0.82 -0.51,0.51 -0.82,1.22 -0.82,2.01l0 28.31c0,0.78 0.32,1.49 0.83,2 0.5,0.51 1.22,0.83 2,0.83l22.48 0c0.06,-0 0.11,-0 0.17,-0 0.06,0 0.12,0 0.17,0zm-0.34 0l0.34 0z"/>
  <rect class="fil1" x="-0" y="0" width="117.43" height="117.43"/>
 </g>
</svg>
