<?xml version="1.0" encoding="UTF-8" standalone="no"?>
<svg
   xmlns:dc="http://purl.org/dc/elements/1.1/"
   xmlns:cc="http://creativecommons.org/ns#"
   xmlns:rdf="http://www.w3.org/1999/02/22-rdf-syntax-ns#"
   xmlns:svg="http://www.w3.org/2000/svg"
   xmlns="http://www.w3.org/2000/svg"
   xmlns:sodipodi="http://sodipodi.sourceforge.net/DTD/sodipodi-0.dtd"
   xmlns:inkscape="http://www.inkscape.org/namespaces/inkscape"
   xml:space="preserve"
   width="50.365mm"
   height="50.365mm"
   version="1.1"
   style="shape-rendering:geometricPrecision; text-rendering:geometricPrecision; image-rendering:optimizeQuality; fill-rule:evenodd; clip-rule:evenodd"
   viewBox="0 0 1500.65 1500.65"
   id="svg12"
   sodipodi:docname="contact_icon.svg"
   inkscape:version="1.0 (4035a4fb49, 2020-05-01)"><metadata
   id="metadata16"><rdf:RDF><cc:Work
       rdf:about=""><dc:format>image/svg+xml</dc:format><dc:type
         rdf:resource="http://purl.org/dc/dcmitype/StillImage" /></cc:Work></rdf:RDF></metadata><sodipodi:namedview
   inkscape:document-rotation="0"
   pagecolor="#ffffff"
   bordercolor="#666666"
   borderopacity="1"
   objecttolerance="10"
   gridtolerance="10"
   guidetolerance="10"
   inkscape:pageopacity="0"
   inkscape:pageshadow="2"
   inkscape:window-width="1920"
   inkscape:window-height="1017"
   id="namedview14"
   showgrid="false"
   inkscape:zoom="4.4653197"
   inkscape:cx="95.177956"
   inkscape:cy="104.13588"
   inkscape:window-x="1912"
   inkscape:window-y="-8"
   inkscape:window-maximized="1"
   inkscape:current-layer="Слой_x0020_1" />
 <defs
   id="defs4">
  <style
   type="text/css"
   id="style2">
   <![CDATA[
    .str0 {stroke:white;stroke-width:5.96;stroke-miterlimit:22.9256}
    .fil1 {fill:none}
    .fil0 {fill:#00124D;fill-rule:nonzero}
   ]]>
  </style>
 </defs>
 <g
   id="Слой_x0020_1">
  <metadata
   id="CorelCorpID_0Corel-Layer" />
  <path
   class="fil0 str0"
   d="m 1054.76,1135.7172 c 0,-53.6 41.25,-95.65 96.96,-95.65 37.58,0 60.96,16.3 77.25,38.89 l -37.31,28.91 c -10.51,-13.14 -22.87,-21.29 -40.47,-21.29 -25.75,0 -43.89,21.82 -43.89,49.14 0,27.6 18.13,49.15 43.89,49.15 19.19,0 30.48,-8.94 41.52,-22.34 l 38.36,27.33 c -17.34,23.9 -40.72,41.52 -81.46,41.52 -52.55,0 -94.85,-40.21 -94.85,-95.66 z m -771.52,0 c 0,-52.82 42.57,-95.65 99.33,-95.65 56.76,0 98.8,42.32 98.8,95.65 0,52.83 -42.57,95.66 -99.33,95.66 -56.76,0 -98.8,-42.32 -98.8,-95.66 z m 52.3,0 c 0,26.54 19.19,49.67 47.04,49.67 28.11,0 46.77,-22.59 46.77,-49.67 0,-26.53 -19.17,-49.66 -47.3,-49.66 -27.85,0 -46.5,22.6 -46.5,49.66 z m -238.87,0 c 0,-53.6 41.25,-95.65 96.97,-95.65 37.58,0 60.96,16.3 77.25,38.89 l -37.31,28.91 c -10.51,-13.14 -22.87,-21.29 -40.47,-21.29 -25.75,0 -43.89,21.82 -43.89,49.14 0,27.6 18.14,49.15 43.89,49.15 19.19,0 30.48,-8.94 41.52,-22.34 l 38.37,27.33 c -17.35,23.9 -40.74,41.52 -81.46,41.52 -52.56,0 -94.87,-40.21 -94.87,-95.66 z m 1201.16,91.98 v -139.28 h -55.18 v -44.67 h 161.34 v 44.67 h -55.18 v 139.28 z m -297.46,0 -13.4,-32.86 h -70.95 l -13.14,32.86 h -53.61 l 78.31,-185.27 h 49.14 l 78.3,185.27 z m -69.38,-72.53 h 41.25 l -20.49,-52.29 z m -171.85,72.53 v -139.28 h -55.19 v -44.67 H 865.3 v 44.67 h -55.19 v 139.28 z m -122.2,0 -78.57,-100.91 v 100.91 h -50.45 v -183.95 h 47.57 l 75.68,97.23 v -97.23 h 50.45 v 183.95 H 636.95 Z M 534.35,849.07712 c -22.03,0 -41.99,-8.91 -56.4,-23.37 v -0.13 c -14.42,-14.42 -23.37,-34.33 -23.37,-56.29 v -372.2 c 0,-22.04 8.92,-41.99 23.37,-56.41 h 0.11 c 14.42,-14.41 34.33,-23.37 56.29,-23.37 h 186.11 c 14.69,0 26.59,11.9 26.59,26.59 0,14.69 -11.9,26.59 -26.59,26.59 H 534.35 c -7.34,0 -14.06,2.98 -18.85,7.74 -4.75,4.87 -7.74,11.5 -7.74,18.85 v 372.2 c 0,7.39 2.94,14.07 7.74,18.85 4.87,4.76 11.51,7.74 18.85,7.74 h 372.2 c 7.35,0 13.99,-2.98 18.82,-7.78 4.8,-4.8 7.78,-11.47 7.78,-18.82 v -186.11 c 0,-14.68 11.9,-26.59 26.59,-26.59 14.69,0 26.59,11.91 26.59,26.59 v 186.11 c 0,22 -8.91,41.99 -23.37,56.41 -14.42,14.41 -34.37,23.37 -56.41,23.37 h -372.2 z m 80.6,-179.7 c -1.14,-4.48 -1.02,-9 0.07,-13.2 l 26.52,-106.01 c 1.22,-4.83 3.69,-9.03 6.99,-12.34 l 252.53,-252.6 c 7.62,-7.62 16.81,-13.71 26.94,-17.92 10.06,-4.2 20.86,-6.41 31.74,-6.41 22.83,0 43.56,9.31 58.57,24.32 h 0.12 c 15,15 24.31,35.78 24.31,58.68 0,10.84 -2.24,21.6 -6.37,31.65 -4.16,10.14 -10.2,19.33 -17.95,27.03 l -252.56,252.56 c -3.93,3.92 -8.72,6.33 -13.79,7.3 l -104.91,26.24 c -2.16,0.55 -4.33,0.8 -6.47,0.8 -11.89,0 -22.71,-8.07 -25.74,-20.13 z m 323.98,-346.83 -247.69,247.69 -14.07,56.21 56.21,-14.07 247.42,-247.42 c 2.87,-2.87 5.06,-6.17 6.52,-9.66 1.46,-3.45 2.2,-7.34 2.2,-11.39 0,-8.21 -3.34,-15.71 -8.72,-21.1 -5.34,-5.42 -12.81,-8.72 -21.1,-8.72 -4.04,0 -7.89,0.79 -11.47,2.24 l 0.04,-0.04 c -3.34,1.37 -6.52,3.49 -9.35,6.25 z"
   id="path7" />
  <rect
   class="fil1 str0"
   x="2.98"
   y="2.98"
   width="1494.69"
   height="1494.69"
   id="rect9" />
 </g>
</svg>
