<?xml version="1.0" encoding="UTF-8" standalone="no"?>
<svg
   xmlns:dc="http://purl.org/dc/elements/1.1/"
   xmlns:cc="http://creativecommons.org/ns#"
   xmlns:rdf="http://www.w3.org/1999/02/22-rdf-syntax-ns#"
   xmlns:svg="http://www.w3.org/2000/svg"
   xmlns="http://www.w3.org/2000/svg"
   xmlns:sodipodi="http://sodipodi.sourceforge.net/DTD/sodipodi-0.dtd"
   xmlns:inkscape="http://www.inkscape.org/namespaces/inkscape"
   inkscape:version="1.0 (4035a4fb49, 2020-05-01)"
   sodipodi:docname="zoom_icon_disabled.svg"
   id="svg12"
   viewBox="0 0 5286 5286"
   style="shape-rendering:geometricPrecision; text-rendering:geometricPrecision; image-rendering:optimizeQuality; fill-rule:evenodd; clip-rule:evenodd"
   version="1.1"
   height="50.365mm"
   width="50.365mm"
   xml:space="preserve"><metadata
   id="metadata16"><rdf:RDF><cc:Work
       rdf:about=""><dc:format>image/svg+xml</dc:format><dc:type
         rdf:resource="http://purl.org/dc/dcmitype/StillImage" /><dc:title></dc:title></cc:Work></rdf:RDF></metadata><sodipodi:namedview
   inkscape:current-layer="Слой_x0020_1"
   inkscape:window-maximized="1"
   inkscape:window-y="-8"
   inkscape:window-x="1912"
   inkscape:cy="83.803364"
   inkscape:cx="45.836188"
   inkscape:zoom="3.1574578"
   showgrid="false"
   id="namedview14"
   inkscape:window-height="1017"
   inkscape:window-width="1920"
   inkscape:pageshadow="2"
   inkscape:pageopacity="0"
   guidetolerance="10"
   gridtolerance="10"
   objecttolerance="10"
   borderopacity="1"
   bordercolor="#666666"
   pagecolor="#ffffff" />
 <defs
   id="defs4">
  <style
   id="style2"
   type="text/css">
   <![CDATA[
    .str0 {stroke:white;stroke-width:20.99;stroke-miterlimit:22.9256}
    .fil1 {fill:none}
    .fil0 {fill:#00124D;fill-rule:nonzero}
   ]]>
  </style>
 </defs>
 <g
   id="Слой_x0020_1">
  <metadata
   id="CorelCorpID_0Corel-Layer" />
  <path
   style="fill:#4d4d4d"
   id="path7"
   d="M3069.6 4345.73l0 -647.95 518.36 0 0 157.35 -338.78 0 0 110.16 306.36 0 0 149.02 -306.36 0 0 231.42 -179.58 0zm-708.11 0l0 -647.95 249.92 0c231.43,0 365.62,133.28 365.62,322.12 0,186.98 -136.05,325.83 -369.31,325.83l-246.22 0zm179.58 -159.21l73.11 0c107.4,0 178.67,-59.25 178.67,-165.68 0,-103.66 -71.27,-165.71 -178.67,-165.71l-73.11 0 0 331.39zm-802.51 159.21l0 -647.95 277.69 0c163.83,0 269.33,84.24 269.33,229.55 0,152.72 -117.52,233.26 -278.6,233.26l-88.84 0 0 185.14 -179.58 0zm179.58 -325.83l85.15 0c63.87,0 102.73,-33.32 102.73,-86.07 0,-55.55 -38.85,-85.17 -103.66,-85.17l-84.21 0 0 171.24zm-0.26 -1007.84c-85.44,0 -163.08,-34.82 -219.26,-91.01l-0.47 0c-56.18,-56.18 -91.04,-133.92 -91.04,-219.73l0.34 -414.19c0,-56.98 46.22,-103.17 103.2,-103.17 56.98,0 103.17,46.19 103.17,103.17l0 414.19c0.33,28.63 12.03,54.62 30.75,73.22 18.49,18.72 44.49,30.29 73.22,30.29l1450.22 0c28.62,0 54.62,-11.57 73.21,-30.29 18.73,-18.73 30.32,-44.72 30.32,-73.22l0 -414.19 0.1 0c0,-57.21 46.42,-103.63 103.63,-103.63 57.22,0 103.64,46.42 103.64,103.63l0 414.19c0,85.81 -34.87,163.55 -91.05,219.73 -56.18,56.18 -133.92,91.01 -219.73,91.01l-1450.25 0zm727.56 -621.33l-2.5 0 -2.5 0 -0.2 0 -2.3 -0.09 -0.34 0 -2.13 -0.14c-7.63,-0.57 -14.9,-1.93 -21.92,-3.97l-0.24 -0.09 -2.13 -0.7 -0.23 -0.1c-1.47,-0.46 -2.83,-0.89 -4.2,-1.46l-0.47 -0.14 -1.36 -0.57 -0.23 -0.1 -1.56 -0.69 -0.8 -0.34 -1.94 -0.9 -1.93 -0.89 -0.66 -0.37 -1.93 -0.9 -0.14 -0.1c-8.63,-4.43 -16.9,-10.22 -24.3,-17.25l-1.79 -1.7 -517.93 -517.94c-40.39,-40.42 -40.39,-106 0,-146.53 40.42,-40.42 106.03,-40.42 146.55,0l341.06 341.03 0 -992.87c0,-57.21 46.45,-103.63 103.63,-103.63 57.21,0 103.63,46.42 103.63,103.63l0 992.87 341.09 -341.03c40.4,-40.42 106,-40.42 146.53,0 40.42,40.39 40.42,106 0,146.53l-517.9 517.94c-8.53,8.49 -18.06,15.2 -28.25,20.09l-0.14 0.1c-1.47,0.7 -2.83,1.36 -4.3,1.93l-0.46 0.23 -1.81 0.8 -0.23 0.1 -1.36 0.57 -0.46 0.14 -0.1 0c-1.36,0.57 -2.73,1 -4.2,1.46l-0.34 0.1 -2.07 0.7 -0.2 0.09c-7.06,2.04 -14.42,3.4 -21.92,3.97l-2.16 0.14 -0.34 0 -2.27 0.09 -0.23 0z"
   class="fil0" />
  <rect
   id="rect9"
   height="5265.01"
   width="5265.01"
   y="10.5"
   x="10.5"
   class="fil1 str0" />
 </g>
</svg>
