<?xml version="1.0" encoding="UTF-8"?>
<!DOCTYPE svg PUBLIC "-//W3C//DTD SVG 1.1//EN" "http://www.w3.org/Graphics/SVG/1.1/DTD/svg11.dtd">
<!-- Creator: CorelDRAW 2019 (64-Bit) -->
<svg xmlns="http://www.w3.org/2000/svg" xml:space="preserve" width="50.365mm" height="50.365mm" version="1.1" style="shape-rendering:geometricPrecision; text-rendering:geometricPrecision; image-rendering:optimizeQuality; fill-rule:evenodd; clip-rule:evenodd"
viewBox="0 0 3252.99 3252.99"
 xmlns:xlink="http://www.w3.org/1999/xlink"
 xmlns:xodm="http://www.corel.com/coreldraw/odm/2003">
 <defs>
  <style type="text/css">
   <![CDATA[
    .str0 {stroke:white;stroke-width:12.92;stroke-miterlimit:22.9256}
    .fil1 {fill:none}
    .fil0 {fill:#00124D;fill-rule:nonzero}
   ]]>
  </style>
 </defs>
 <g id="Слой_x0020_1">
  <metadata id="CorelCorpID_0Corel-Layer"/>
  <path class="fil0" d="M1597.45 2470.98c0,-114.49 92.28,-207.34 215.32,-207.34 123.04,0 214.17,91.73 214.17,207.34 0,114.51 -92.28,207.37 -215.32,207.37 -123.05,0 -214.17,-91.73 -214.17,-207.37zm113.34 0c0,57.54 41.59,107.66 101.98,107.66 60.95,0 101.38,-48.97 101.38,-107.66 0,-57.52 -41.59,-107.66 -102.53,-107.66 -60.38,0 -100.84,48.99 -100.84,107.66zm-586.72 0c0,-114.49 92.28,-207.34 215.32,-207.34 123.04,0 214.19,91.73 214.19,207.34 0,114.51 -92.28,207.37 -215.32,207.37 -123.04,0 -214.19,-91.73 -214.19,-207.37zm113.36 0c0,57.54 41.59,107.66 101.96,107.66 60.97,0 101.41,-48.97 101.41,-107.66 0,-57.52 -41.59,-107.66 -102.53,-107.66 -60.39,0 -100.84,48.99 -100.84,107.66zm1160.92 199.39l0 -229 -101.96 156.08 -2.27 0 -101.41 -154.93 0 227.85 -108.21 0 0 -398.75 116.76 0 95.13 154.37 95.13 -154.37 116.77 0 0 398.75 -109.94 0zm-1653.65 0l0 -80.33 199.95 -225 -193.09 0 0 -93.43 345.77 0 0 80.33 -199.95 225 199.95 0 0 93.43 -352.62 0zm883.66 -820.52l-255.02 0c-35.21,0 -63.77,-28.55 -63.77,-63.76 0,-35.19 28.57,-63.76 63.77,-63.76l191.27 0 0 -127.62 -446.35 0.1c-52.6,0 -100.38,-21.46 -134.98,-56l-0.26 0c-34.59,-34.6 -56.02,-82.46 -56.02,-135.27l0 -637.62c0,-52.6 21.45,-100.38 56.02,-134.98l0.26 -0.26c34.6,-34.59 82.38,-56.02 134.98,-56.02l0 -0.05 1020.24 0c52.62,0 100.4,21.48 135,56.03l0.26 0c34.59,34.59 56,82.45 56,135.26l-0.26 637.6 0.23 0.04c0,52.58 -21.46,100.36 -56.15,135.08 -34.3,34.59 -82.12,55.88 -135.07,55.92l-446.38 0.12 0 127.67 191.27 0c35.21,0 63.76,28.56 63.76,63.76 0,35.21 -28.55,63.76 -63.76,63.76l-255.03 0zm3.9 -382.42l506.27 0.1c17.37,0 33.35,-7.26 45.01,-18.92l0.26 0c11.39,-11.36 18.44,-27.26 18.44,-45.01l0.26 -637.68c-0.23,-17.61 -7.4,-33.59 -18.92,-45.11 -11.36,-11.55 -27.42,-18.64 -45.1,-18.64l-1020.2 0c-17.72,0 -33.73,7.14 -45.2,18.54 -11.43,11.48 -18.56,27.5 -18.56,45.22l0 637.6c0,17.59 7.13,33.59 18.7,45.1 11.36,11.57 27.38,18.7 45.06,18.7l506.25 0.12c1.27,-0.08 2.52,-0.12 3.86,-0.12 1.27,0 2.6,0.05 3.86,0.12zm-7.67 0l7.67 0z"/>
  <rect class="fil1 str0" x="6.46" y="6.46" width="3240.07" height="3240.07"/>
 </g>
</svg>
